<?xml version="1.0" encoding="UTF-8" standalone="no" ?>
<!DOCTYPE svg PUBLIC "-//W3C//DTD SVG 1.1//EN" "http://www.w3.org/Graphics/SVG/1.1/DTD/svg11.dtd">
<svg xmlns="http://www.w3.org/2000/svg" xmlns:xlink="http://www.w3.org/1999/xlink" version="1.1" width="1080" height="1080" viewBox="0 0 1080 1080" xml:space="preserve">
<desc>Created with Fabric.js 5.2.4</desc>
<defs>
</defs>
<g transform="matrix(1 0 0 1 540 540)" id="b7f3d344-753d-4212-894b-99cd9fd4ff0b"  >
<rect style="stroke: none; stroke-width: 1; stroke-dasharray: none; stroke-linecap: butt; stroke-dashoffset: 0; stroke-linejoin: miter; stroke-miterlimit: 4; fill: rgb(255,255,255); fill-rule: nonzero; opacity: 1; visibility: hidden;" vector-effect="non-scaling-stroke"  x="-540" y="-540" rx="0" ry="0" width="1080" height="1080" />
</g>
<g transform="matrix(1 0 0 1 540 540)" id="2926c250-df91-48cf-a02d-589c49e4ff9a"  >
</g>
<g transform="matrix(1 0 0 1 540 540)"  >
<g style="" vector-effect="non-scaling-stroke"   >
		<g transform="matrix(1 0 0 1 30.97 -15.43)"  >
<path style="stroke: none; stroke-width: 1; stroke-dasharray: none; stroke-linecap: butt; stroke-dashoffset: 0; stroke-linejoin: miter; stroke-miterlimit: 4; fill: rgb(255,255,255); fill-rule: nonzero; opacity: 1;" vector-effect="non-scaling-stroke"  transform=" translate(-622.84, -382.28)" d="M 833.556 367.574 C 825.803 359.619 814.97 355.41900000000004 803.9000000000001 356.02500000000003 L 669.9190000000001 363.48300000000006 L 743.652 279.50800000000004 C 754.1560000000001 267.54600000000005 757.157 251.60000000000002 753.096 237.35100000000006 C 750.953 227.58700000000005 745.04 218.70300000000006 735.956 213.02700000000004 C 735.677 212.82800000000003 559.7090000000001 110.60400000000004 559.7090000000001 110.60400000000004 C 545.34 102.25700000000005 527.234 104.09600000000005 514.8340000000001 115.15600000000003 L 428.8760000000001 191.83200000000005 C 413.0390000000001 205.95800000000006 411.6520000000001 230.24800000000005 425.7790000000001 246.08600000000004 C 439.9070000000001 261.922 464.1980000000001 263.31300000000005 480.0340000000001 249.18200000000004 L 545.2020000000001 191.05100000000004 L 599.0760000000001 222.33600000000004 L 503.98000000000013 330.6410000000001 C 464.54700000000014 337.07200000000006 429.0670000000001 355.24300000000005 401.21500000000015 381.44200000000006 L 450.8750000000001 431.1020000000001 C 473.3240000000001 410.6900000000001 503.1310000000001 398.2310000000001 535.7930000000001 398.2310000000001 C 605.4600000000002 398.2310000000001 662.1390000000001 454.9110000000001 662.1390000000001 524.5790000000001 C 662.1390000000001 557.2410000000001 649.6800000000002 587.046 629.2700000000001 609.4950000000001 L 678.9270000000001 659.1550000000001 C 712.0070000000002 623.989 732.3090000000001 576.671 732.3090000000001 524.5790000000001 C 732.3090000000001 493.54400000000004 725.104 464.19500000000005 712.2930000000001 438.0970000000001 L 764.1540000000001 435.2080000000001 L 751.5380000000001 589.9580000000001 C 749.8130000000001 611.1100000000001 765.5650000000002 629.6530000000001 786.7180000000001 631.3800000000001 C 787.777 631.4660000000001 788.8340000000001 631.5070000000001 789.8810000000001 631.5070000000001 C 809.6870000000001 631.5070000000001 826.5020000000001 616.288 828.138 596.201 L 844.331 397.516 C 845.235 386.445 841.305 375.527 833.556 367.574 z" stroke-linecap="round" />
</g>
		<g transform="matrix(1 0 0 1 170.51 -259.07)"  >
<path style="stroke: none; stroke-width: 1; stroke-dasharray: none; stroke-linecap: butt; stroke-dashoffset: 0; stroke-linejoin: miter; stroke-miterlimit: 4; fill: rgb(255,255,255); fill-rule: nonzero; opacity: 1;" vector-effect="non-scaling-stroke"  transform=" translate(-762.38, -138.64)" d="M 762.384 202.965 C 797.907 202.965 826.701 174.168 826.701 138.643 C 826.701 103.12 797.907 74.32000000000001 762.384 74.32000000000001 C 726.857 74.32000000000001 698.061 103.12 698.061 138.643 C 698.061 174.168 726.856 202.965 762.384 202.965 z" stroke-linecap="round" />
</g>
		<g transform="matrix(1 0 0 1 -93.79 164.59)"  >
<path style="stroke: none; stroke-width: 1; stroke-dasharray: none; stroke-linecap: butt; stroke-dashoffset: 0; stroke-linejoin: miter; stroke-miterlimit: 4; fill: rgb(255,255,255); fill-rule: nonzero; opacity: 1;" vector-effect="non-scaling-stroke"  transform=" translate(-498.07, -562.3)" d="M 535.794 650.926 C 466.126 650.926 409.44599999999997 594.2460000000001 409.44599999999997 524.5780000000001 C 409.44599999999997 498.3220000000001 417.50199999999995 473.9180000000001 431.263 453.6910000000001 L 381.067 403.4960000000001 C 354.91200000000003 436.8730000000001 339.276 478.8890000000001 339.276 524.5780000000001 C 339.276 633.113 427.259 721.095 535.794 721.095 C 581.485 721.095 623.497 705.4590000000001 656.8729999999999 679.303 L 606.6779999999999 629.11 C 586.452 642.867 562.048 650.926 535.794 650.926 z" stroke-linecap="round" />
</g>
</g>
</g>
</svg>