<?xml version="1.0" encoding="UTF-8" ?>
<!DOCTYPE svg PUBLIC "-//W3C//DTD SVG 1.1//EN" "http://www.w3.org/Graphics/SVG/1.1/DTD/svg11.dtd">
<svg width="1024pt" height="1024pt" viewBox="0 0 1024 1024" version="1.1" xmlns="http://www.w3.org/2000/svg">
<g id="#141430ff">
<path fill="#141430" opacity="1.00" d=" M 0.00 0.00 L 1024.00 0.00 L 1024.00 1024.00 L 0.00 1024.00 L 0.00 0.00 M 342.26 262.24 C 338.62 265.30 337.15 270.06 335.28 274.27 C 330.24 287.56 327.68 301.79 327.98 316.01 C 327.58 329.48 329.23 343.11 333.77 355.84 C 319.42 370.86 310.36 390.06 303.52 409.46 C 300.37 420.04 297.83 430.95 297.89 442.04 C 296.83 449.67 297.26 457.37 297.29 465.05 C 297.71 471.74 297.19 478.53 298.69 485.12 C 299.71 493.20 300.78 501.28 302.53 509.24 C 292.70 509.46 282.86 509.60 273.02 509.44 C 262.65 510.44 252.20 509.54 241.85 510.80 C 236.38 511.40 230.79 510.42 225.38 511.45 C 220.04 512.52 218.42 519.11 220.20 523.64 C 221.50 525.90 224.24 527.48 226.88 526.90 C 237.16 525.17 247.58 524.91 257.96 524.03 C 269.93 524.28 281.88 522.85 293.83 524.08 C 297.56 524.62 301.21 525.61 304.95 526.15 C 306.11 526.49 307.69 526.46 308.40 527.62 C 310.40 531.09 311.44 534.98 313.01 538.65 C 300.81 540.20 288.65 542.10 276.56 544.37 C 266.17 546.19 256.40 550.29 246.34 553.31 C 243.14 554.57 239.09 555.06 237.16 558.27 C 236.77 560.42 236.75 562.65 237.09 564.83 C 238.58 568.61 243.02 570.56 246.92 569.98 C 255.57 568.64 263.75 565.37 272.24 563.34 C 285.00 560.06 298.06 558.16 311.07 556.18 C 314.98 555.96 318.94 555.45 322.85 555.87 C 324.09 557.08 325.04 558.55 326.01 559.98 C 337.01 576.20 352.66 588.51 369.05 598.92 C 387.37 609.63 407.25 617.82 428.07 622.16 C 424.36 631.24 422.24 640.90 421.74 650.70 C 414.35 654.78 406.22 657.27 397.95 658.78 C 389.70 660.22 381.97 655.97 375.25 651.73 C 367.02 647.33 360.42 640.14 356.06 631.94 C 352.25 625.03 346.32 619.68 340.76 614.23 C 330.87 604.64 317.24 600.03 303.84 598.18 C 298.12 597.79 292.05 597.16 286.63 599.48 C 282.48 601.35 280.81 606.14 280.17 610.34 C 279.66 617.34 283.35 624.02 288.40 628.64 C 291.93 631.05 295.34 633.65 298.85 636.08 C 305.69 640.00 311.16 645.91 315.70 652.27 C 320.06 659.40 322.06 667.66 326.00 675.01 C 333.60 690.72 347.94 702.34 363.72 709.25 C 370.41 711.62 376.76 715.15 383.86 716.26 C 396.79 718.51 410.03 718.21 423.05 716.95 C 422.74 722.84 424.70 728.75 423.48 734.60 C 422.02 738.75 418.18 741.53 414.36 743.37 C 408.51 746.31 401.30 745.76 396.14 750.16 C 392.23 752.25 392.43 757.19 392.76 760.99 C 393.17 766.16 397.35 770.03 401.67 772.35 C 407.72 775.42 414.13 777.91 420.85 779.03 C 436.97 782.22 453.64 778.76 468.67 772.70 C 477.49 768.52 486.03 762.39 490.34 753.35 C 494.53 745.60 494.54 736.58 494.13 728.03 C 493.61 719.36 494.73 710.60 493.15 702.02 C 492.82 691.67 493.08 681.30 493.01 670.94 C 492.88 666.39 494.90 661.83 493.64 657.33 C 492.46 653.44 487.85 652.34 484.30 653.16 C 478.98 655.49 475.21 661.14 475.60 667.02 C 475.81 681.67 475.28 696.35 476.00 710.99 C 476.02 720.67 475.94 730.36 476.10 740.04 C 476.06 744.74 472.48 748.32 469.19 751.23 C 460.70 758.15 450.15 763.26 439.06 763.61 C 432.29 763.09 425.47 762.23 418.92 760.42 C 423.06 759.09 427.17 757.33 430.45 754.40 C 435.72 749.85 438.74 743.33 440.80 736.82 C 441.88 729.59 440.91 722.26 441.00 715.00 C 440.94 710.37 441.15 705.75 440.81 701.14 C 439.99 690.79 441.02 680.39 440.06 670.05 C 440.01 662.02 439.86 653.99 440.14 645.97 C 441.13 639.64 441.65 632.34 446.90 627.92 C 449.25 623.37 454.81 620.53 455.05 615.01 C 455.44 612.00 452.81 609.75 450.29 608.73 C 442.46 605.50 433.96 604.49 425.89 602.07 C 419.13 599.99 412.21 598.31 405.81 595.24 C 395.23 590.95 384.64 586.35 375.30 579.72 C 366.49 574.92 358.97 568.13 351.71 561.28 C 337.49 547.74 328.69 529.57 322.93 511.03 C 321.00 502.39 318.26 493.94 316.90 485.18 C 315.35 478.52 316.53 471.63 315.20 464.94 C 314.22 445.67 315.85 425.94 322.67 407.76 C 327.04 394.91 333.33 382.52 342.20 372.17 C 345.99 367.63 351.11 364.20 354.06 358.98 C 355.19 356.84 354.87 354.27 353.76 352.20 C 349.17 343.92 346.71 334.44 346.80 324.97 C 346.78 316.58 346.22 308.09 347.84 299.81 C 348.87 294.29 349.68 288.71 351.33 283.33 C 352.00 281.43 352.60 279.29 354.23 277.96 C 359.60 278.32 364.53 280.81 369.57 282.49 C 378.28 285.41 386.86 288.78 395.08 292.88 C 404.37 298.42 413.59 304.16 422.01 310.98 C 424.05 312.49 426.26 314.32 428.99 314.02 C 432.85 313.75 436.41 311.97 440.20 311.23 C 448.76 309.50 456.76 305.71 465.41 304.32 C 474.50 302.39 483.73 301.30 492.93 300.07 C 505.28 299.97 517.63 299.92 529.98 300.10 C 537.78 301.26 545.66 301.97 553.38 303.65 C 566.89 305.96 579.79 310.82 593.09 314.00 C 596.46 314.89 599.53 313.08 601.98 310.94 C 608.34 305.41 615.65 301.18 622.79 296.77 C 628.62 292.95 634.95 289.98 641.45 287.50 C 650.82 283.97 659.89 279.32 669.88 277.77 C 673.40 282.53 674.82 288.40 675.76 294.15 C 676.05 304.49 679.11 314.68 677.92 325.08 C 676.81 334.00 675.55 343.20 671.15 351.19 C 669.42 354.02 669.49 357.81 671.64 360.40 C 675.74 365.89 681.25 370.15 685.25 375.74 C 696.46 390.74 703.59 408.59 706.80 426.99 C 708.85 442.54 710.56 458.39 708.03 474.00 C 707.53 485.42 704.91 496.57 701.43 507.42 C 699.41 516.89 695.99 526.03 691.63 534.66 C 686.00 544.36 680.64 554.60 672.05 562.07 C 663.78 569.67 654.75 576.56 644.84 581.88 C 633.68 589.25 621.19 594.22 608.63 598.63 C 596.91 602.57 584.51 604.30 573.07 609.04 C 568.23 610.82 568.74 617.91 572.16 620.86 C 574.80 623.26 576.92 626.14 578.71 629.22 C 582.27 634.46 583.01 640.92 583.85 647.04 C 584.45 659.36 583.60 671.69 584.00 684.02 C 584.29 688.05 582.82 691.93 582.99 695.96 C 583.01 707.66 582.99 719.36 583.00 731.06 C 583.27 740.28 586.60 750.08 594.27 755.72 C 596.94 757.92 600.30 758.99 603.19 760.84 C 591.29 764.35 578.07 763.83 566.93 758.11 C 558.81 754.95 551.75 748.76 548.23 740.73 C 546.32 736.34 547.88 731.59 547.95 727.05 C 548.22 707.02 547.77 687.00 548.19 666.98 C 548.66 661.91 545.48 657.33 541.60 654.42 C 538.32 651.84 532.35 652.53 530.81 656.76 C 529.02 660.67 530.84 664.89 530.77 668.96 C 530.71 674.64 530.68 680.32 530.72 686.00 C 531.13 694.69 529.44 703.30 530.08 712.00 C 530.74 723.82 526.87 736.22 531.48 747.58 C 534.58 754.05 538.13 760.62 543.76 765.26 C 552.32 771.85 562.07 777.16 572.75 779.29 C 587.16 782.83 602.53 780.67 616.12 775.06 C 619.99 773.54 623.79 771.69 627.06 769.08 C 632.20 764.99 633.59 757.13 630.72 751.36 C 627.47 746.15 620.62 747.40 615.60 745.45 C 610.17 743.64 603.36 741.74 601.12 735.86 C 600.63 724.58 601.46 713.29 601.20 702.00 C 601.07 697.32 601.38 692.66 601.61 687.99 C 601.15 669.36 604.07 650.30 598.90 632.06 C 598.23 628.75 596.20 625.55 596.73 622.11 C 606.22 619.25 615.91 616.88 625.10 613.08 C 634.87 609.78 643.75 604.46 652.99 599.97 C 666.49 591.97 679.01 582.25 689.81 570.83 C 694.92 565.72 698.97 559.73 702.44 553.44 C 714.30 555.77 726.38 557.11 738.18 559.83 C 749.48 562.05 760.44 565.64 771.57 568.58 C 775.75 569.50 780.54 571.09 784.41 568.36 C 789.30 565.75 789.71 556.83 784.12 554.83 C 775.70 551.41 766.67 549.87 758.12 546.84 C 745.88 543.18 733.17 541.47 720.58 539.49 C 717.39 538.97 714.15 538.91 710.93 538.81 C 712.43 534.48 714.58 530.42 716.22 526.14 C 718.95 526.12 721.75 526.16 724.37 525.24 C 730.99 522.81 738.14 524.34 745.02 523.76 C 756.67 524.25 768.39 523.16 779.98 524.91 C 786.32 525.33 792.59 526.61 798.94 527.02 C 806.05 526.46 806.47 515.02 800.70 512.25 C 794.14 511.52 787.54 510.93 780.93 510.87 C 761.31 509.32 741.61 510.02 721.95 509.90 C 723.89 500.69 724.87 491.32 725.93 481.98 C 727.70 474.09 726.63 465.98 727.28 457.99 C 726.74 441.32 726.06 424.29 720.78 408.32 C 717.32 400.09 714.57 391.55 710.33 383.67 C 705.08 373.66 698.58 364.30 691.05 355.90 C 692.73 350.02 694.66 344.16 695.23 338.03 C 696.34 331.96 695.70 325.76 696.74 319.69 C 697.50 314.47 696.71 309.25 696.08 304.08 C 696.24 297.81 694.70 291.71 693.33 285.65 C 691.18 277.84 688.75 269.80 683.50 263.46 C 681.22 260.71 677.54 259.56 674.06 259.76 C 665.43 259.58 657.30 262.72 649.19 265.19 C 633.71 268.61 619.76 276.47 605.98 284.01 C 600.78 286.74 596.11 290.42 590.89 293.05 C 587.66 292.69 584.70 291.21 581.56 290.51 C 561.74 285.75 541.51 281.47 521.02 282.09 C 505.75 282.08 490.39 281.32 475.20 283.36 C 461.52 285.69 447.95 288.75 434.64 292.70 C 432.48 293.54 430.34 292.62 428.55 291.43 C 412.69 281.16 396.17 271.29 377.83 266.18 C 371.38 263.96 364.88 261.86 358.12 260.82 C 352.91 259.93 346.71 258.50 342.26 262.24 M 439.43 416.53 C 430.96 417.10 422.37 416.03 414.01 417.87 C 405.53 419.52 397.11 422.13 389.82 426.88 C 383.65 430.51 379.31 436.32 374.20 441.18 C 364.62 450.81 360.48 464.30 358.47 477.41 C 356.70 490.17 355.52 503.06 356.12 515.95 C 356.90 521.33 358.16 526.62 359.10 531.97 C 360.55 539.77 365.26 546.34 368.77 553.29 C 373.54 562.67 381.23 570.10 389.22 576.76 C 403.07 588.38 420.28 595.30 437.77 599.28 C 448.48 601.90 459.57 601.94 470.43 603.57 C 479.91 605.37 489.58 605.68 499.15 606.77 C 512.68 607.50 526.24 606.76 539.71 605.46 C 548.78 604.30 557.80 602.66 566.92 601.86 C 576.50 600.58 586.42 600.27 595.47 596.53 C 603.43 593.84 611.33 590.86 618.73 586.85 C 625.88 583.29 632.07 578.19 638.38 573.37 C 642.56 570.22 645.78 566.04 649.06 562.02 C 654.02 555.84 657.01 548.44 660.59 541.45 C 666.00 531.60 667.86 520.17 667.83 509.06 C 668.38 504.05 667.69 499.06 667.15 494.10 C 666.59 480.68 664.76 467.09 659.21 454.74 C 655.84 447.28 650.23 441.19 644.79 435.20 C 639.95 429.75 633.49 426.13 627.05 422.90 C 618.33 418.72 608.53 418.06 599.07 417.07 C 593.03 416.97 587.04 415.93 581.00 416.12 C 569.64 415.99 558.38 417.76 547.04 418.20 C 533.72 419.60 520.32 418.64 506.97 419.18 C 484.37 420.12 462.02 414.89 439.43 416.53 Z" />
<path fill="#141430" opacity="1.00" d=" M 428.43 434.50 C 433.60 433.78 438.79 434.92 443.99 434.73 C 460.07 434.25 476.06 436.60 492.10 437.19 C 498.33 438.36 504.69 437.93 511.00 438.00 C 519.38 437.93 527.80 438.33 536.14 437.23 C 546.09 436.65 556.02 435.90 565.95 435.05 C 584.93 434.76 605.03 432.81 622.74 441.15 C 632.48 446.50 640.47 455.29 644.11 465.87 C 649.41 480.61 650.16 496.56 649.95 512.08 C 648.90 526.58 644.70 541.73 634.39 552.46 C 623.68 564.14 609.87 572.83 594.91 577.98 C 589.49 580.38 583.47 580.34 577.81 581.83 C 563.48 585.43 548.67 586.06 534.07 587.90 C 523.39 588.17 512.69 587.91 502.00 588.00 C 488.66 588.37 475.46 586.06 462.22 584.71 C 452.71 583.77 443.62 580.31 434.06 579.84 C 431.71 579.56 429.55 578.55 427.41 577.65 C 421.23 574.86 414.85 572.46 409.02 568.96 C 397.34 562.09 387.06 552.36 380.57 540.40 C 377.68 532.84 375.20 525.02 374.01 517.00 C 373.31 501.07 373.78 484.80 378.50 469.45 C 381.88 459.63 387.57 450.23 396.22 444.20 C 405.42 437.14 417.40 436.31 428.43 434.50 M 429.28 469.19 C 422.06 470.46 416.49 476.75 414.66 483.65 C 411.66 492.13 411.21 501.38 412.84 510.19 C 414.49 518.78 421.53 526.48 430.45 527.48 C 439.08 528.09 447.32 523.12 452.43 516.43 C 460.54 504.02 459.99 485.60 448.92 475.09 C 443.92 469.86 436.26 468.08 429.28 469.19 M 587.29 469.26 C 581.65 470.85 576.37 474.16 572.98 478.99 C 568.07 485.53 566.90 494.07 567.06 502.03 C 567.27 510.03 571.88 517.19 577.86 522.21 C 582.61 526.01 588.85 528.44 594.98 527.16 C 601.51 526.22 606.61 521.17 609.78 515.68 C 610.11 514.02 609.22 512.32 609.80 510.68 C 611.91 503.44 612.01 495.71 610.69 488.32 C 609.38 481.55 605.84 474.84 599.83 471.16 C 596.12 468.83 591.50 468.53 587.29 469.26 M 509.63 532.66 C 507.03 533.46 503.17 534.36 503.12 537.71 C 500.84 541.07 499.77 545.98 502.69 549.32 C 508.05 556.96 522.70 554.66 524.13 544.96 C 525.74 537.04 516.96 530.38 509.63 532.66 Z" />
<path fill="#141430" opacity="1.00" d=" M 294.71 613.02 C 299.37 612.91 304.11 612.91 308.60 614.35 C 314.83 616.39 321.46 618.11 326.49 622.55 C 334.51 629.73 340.45 638.84 345.93 648.03 C 352.08 657.69 360.37 666.36 370.92 671.19 C 386.82 679.05 405.58 677.60 421.89 671.78 C 421.96 680.48 423.08 689.14 422.85 697.83 C 410.79 699.82 398.49 699.52 386.33 698.73 C 381.08 697.88 375.66 697.32 370.74 695.17 C 366.84 693.16 363.31 690.53 359.44 688.47 C 348.14 681.56 340.83 669.71 336.57 657.43 C 333.58 648.60 327.74 641.22 321.82 634.19 C 318.66 630.89 314.54 628.77 310.78 626.27 C 304.98 622.48 298.13 619.42 294.71 613.02 Z" />
</g>
<g id="#09e4b1ff">
<path fill="#09e4b1" opacity="1.00" d=" M 342.26 262.24 C 346.71 258.50 352.91 259.93 358.12 260.82 C 364.88 261.86 371.38 263.96 377.83 266.18 C 396.17 271.29 412.69 281.16 428.55 291.43 C 430.34 292.62 432.48 293.54 434.64 292.70 C 447.95 288.75 461.52 285.69 475.20 283.36 C 490.39 281.32 505.75 282.08 521.02 282.09 C 541.51 281.47 561.74 285.75 581.56 290.51 C 584.70 291.21 587.66 292.69 590.89 293.05 C 596.11 290.42 600.78 286.74 605.98 284.01 C 619.76 276.47 633.71 268.61 649.19 265.19 C 657.30 262.72 665.43 259.58 674.06 259.76 C 677.54 259.56 681.22 260.71 683.50 263.46 C 688.75 269.80 691.18 277.84 693.33 285.65 C 694.70 291.71 696.24 297.81 696.08 304.08 C 696.71 309.25 697.50 314.47 696.74 319.69 C 695.70 325.76 696.34 331.96 695.23 338.03 C 694.66 344.16 692.73 350.02 691.05 355.90 C 698.58 364.30 705.08 373.66 710.33 383.67 C 714.57 391.55 717.32 400.09 720.78 408.32 C 726.06 424.29 726.74 441.32 727.28 457.99 C 726.63 465.98 727.70 474.09 725.93 481.98 C 724.87 491.32 723.89 500.69 721.95 509.90 C 741.61 510.02 761.31 509.32 780.93 510.87 C 787.54 510.93 794.14 511.52 800.70 512.25 C 806.47 515.02 806.05 526.46 798.94 527.02 C 792.59 526.61 786.32 525.33 779.98 524.91 C 768.39 523.16 756.67 524.25 745.02 523.76 C 738.14 524.34 730.99 522.81 724.37 525.24 C 721.75 526.16 718.95 526.12 716.22 526.14 C 714.58 530.42 712.43 534.48 710.93 538.81 C 714.15 538.91 717.39 538.97 720.58 539.49 C 733.17 541.47 745.88 543.18 758.12 546.84 C 766.67 549.87 775.70 551.41 784.12 554.83 C 789.71 556.83 789.30 565.75 784.41 568.36 C 780.54 571.09 775.75 569.50 771.57 568.58 C 760.44 565.64 749.48 562.05 738.18 559.83 C 726.38 557.11 714.30 555.77 702.44 553.44 C 698.97 559.73 694.92 565.72 689.81 570.83 C 679.01 582.25 666.49 591.97 652.99 599.97 C 643.75 604.46 634.87 609.78 625.10 613.08 C 615.91 616.88 606.22 619.25 596.73 622.11 C 596.20 625.55 598.23 628.75 598.90 632.06 C 604.07 650.30 601.15 669.36 601.61 687.99 C 601.38 692.66 601.07 697.32 601.20 702.00 C 601.46 713.29 600.63 724.58 601.12 735.86 C 603.36 741.74 610.17 743.64 615.60 745.45 C 620.62 747.40 627.47 746.15 630.72 751.36 C 633.59 757.13 632.20 764.99 627.06 769.08 C 623.79 771.69 619.99 773.54 616.12 775.06 C 602.53 780.67 587.16 782.83 572.75 779.29 C 562.07 777.16 552.32 771.85 543.76 765.26 C 538.13 760.62 534.58 754.05 531.48 747.58 C 526.87 736.22 530.74 723.82 530.08 712.00 C 529.44 703.30 531.13 694.69 530.72 686.00 C 530.68 680.32 530.71 674.64 530.77 668.96 C 530.84 664.89 529.02 660.67 530.81 656.76 C 532.35 652.53 538.32 651.84 541.60 654.42 C 545.48 657.33 548.66 661.91 548.19 666.98 C 547.77 687.00 548.22 707.02 547.95 727.05 C 547.88 731.59 546.32 736.34 548.23 740.73 C 551.75 748.76 558.81 754.95 566.93 758.11 C 578.07 763.83 591.29 764.35 603.19 760.84 C 600.30 758.99 596.94 757.92 594.27 755.72 C 586.60 750.08 583.27 740.28 583.00 731.06 C 582.99 719.36 583.01 707.66 582.99 695.96 C 582.82 691.93 584.29 688.05 584.00 684.02 C 583.60 671.69 584.45 659.36 583.85 647.04 C 583.01 640.92 582.27 634.46 578.71 629.22 C 576.92 626.14 574.80 623.26 572.16 620.86 C 568.74 617.91 568.23 610.82 573.07 609.04 C 584.51 604.30 596.91 602.57 608.63 598.63 C 621.19 594.22 633.68 589.25 644.84 581.88 C 654.75 576.56 663.78 569.67 672.05 562.07 C 680.64 554.60 686.00 544.36 691.63 534.66 C 695.99 526.03 699.41 516.89 701.43 507.42 C 704.91 496.57 707.53 485.42 708.03 474.00 C 710.56 458.39 708.85 442.54 706.80 426.99 C 703.59 408.59 696.46 390.74 685.25 375.74 C 681.25 370.15 675.74 365.89 671.64 360.40 C 669.49 357.81 669.42 354.02 671.15 351.19 C 675.55 343.20 676.81 334.00 677.92 325.08 C 679.11 314.68 676.05 304.49 675.76 294.15 C 674.82 288.40 673.40 282.53 669.88 277.77 C 659.89 279.32 650.82 283.97 641.45 287.50 C 634.95 289.98 628.62 292.95 622.79 296.77 C 615.65 301.18 608.34 305.41 601.98 310.94 C 599.53 313.08 596.46 314.89 593.09 314.00 C 579.79 310.82 566.89 305.96 553.38 303.65 C 545.66 301.97 537.78 301.26 529.98 300.10 C 517.63 299.92 505.28 299.97 492.93 300.07 C 483.73 301.30 474.50 302.39 465.41 304.32 C 456.76 305.71 448.76 309.50 440.20 311.23 C 436.41 311.97 432.85 313.75 428.99 314.02 C 426.26 314.32 424.05 312.49 422.01 310.98 C 413.59 304.16 404.37 298.42 395.08 292.88 C 386.86 288.78 378.28 285.41 369.57 282.49 C 364.53 280.81 359.60 278.32 354.23 277.96 C 352.60 279.29 352.00 281.43 351.33 283.33 C 349.68 288.71 348.87 294.29 347.84 299.81 C 346.22 308.09 346.78 316.58 346.80 324.97 C 346.71 334.44 349.17 343.92 353.76 352.20 C 354.87 354.27 355.19 356.84 354.06 358.98 C 351.11 364.20 345.99 367.63 342.20 372.17 C 333.33 382.52 327.04 394.91 322.67 407.76 C 315.85 425.94 314.22 445.67 315.20 464.94 C 316.53 471.63 315.35 478.52 316.90 485.18 C 318.26 493.94 321.00 502.39 322.93 511.03 C 328.69 529.57 337.49 547.74 351.71 561.28 C 358.97 568.13 366.49 574.92 375.30 579.72 C 384.64 586.35 395.23 590.95 405.81 595.24 C 412.21 598.31 419.13 599.99 425.89 602.07 C 433.96 604.49 442.46 605.50 450.29 608.73 C 452.81 609.75 455.44 612.00 455.05 615.01 C 454.81 620.53 449.25 623.37 446.90 627.92 C 441.65 632.34 441.13 639.64 440.14 645.97 C 439.86 653.99 440.01 662.02 440.06 670.05 C 441.02 680.39 439.99 690.79 440.81 701.14 C 441.15 705.75 440.94 710.37 441.00 715.00 C 440.91 722.26 441.88 729.59 440.80 736.82 C 438.74 743.33 435.72 749.85 430.45 754.40 C 427.17 757.33 423.06 759.09 418.92 760.42 C 425.47 762.23 432.29 763.09 439.06 763.61 C 450.15 763.26 460.70 758.15 469.19 751.23 C 472.48 748.32 476.06 744.74 476.10 740.04 C 475.94 730.36 476.02 720.67 476.00 710.99 C 475.28 696.35 475.81 681.67 475.60 667.02 C 475.21 661.14 478.98 655.49 484.30 653.16 C 487.85 652.34 492.46 653.44 493.64 657.33 C 494.90 661.83 492.88 666.39 493.01 670.94 C 493.08 681.30 492.82 691.67 493.15 702.02 C 494.73 710.60 493.61 719.36 494.13 728.03 C 494.54 736.58 494.53 745.60 490.34 753.35 C 486.03 762.39 477.49 768.52 468.67 772.70 C 453.64 778.76 436.97 782.22 420.85 779.03 C 414.13 777.91 407.72 775.42 401.67 772.35 C 397.35 770.03 393.17 766.16 392.76 760.99 C 392.43 757.19 392.23 752.25 396.14 750.16 C 401.30 745.76 408.51 746.31 414.36 743.37 C 418.18 741.53 422.02 738.75 423.48 734.60 C 424.70 728.75 422.74 722.84 423.05 716.95 C 410.03 718.21 396.79 718.51 383.86 716.26 C 376.76 715.15 370.41 711.62 363.72 709.25 C 347.94 702.34 333.60 690.72 326.00 675.01 C 322.06 667.66 320.06 659.40 315.70 652.27 C 311.16 645.91 305.69 640.00 298.85 636.08 C 295.34 633.65 291.93 631.05 288.40 628.64 C 283.35 624.02 279.66 617.34 280.17 610.34 C 280.81 606.14 282.48 601.35 286.63 599.48 C 292.05 597.16 298.12 597.79 303.84 598.18 C 317.24 600.03 330.87 604.64 340.76 614.23 C 346.32 619.68 352.25 625.03 356.06 631.94 C 360.42 640.14 367.02 647.33 375.25 651.73 C 381.97 655.97 389.70 660.22 397.95 658.78 C 406.22 657.27 414.35 654.78 421.74 650.70 C 422.24 640.90 424.36 631.24 428.07 622.16 C 407.25 617.82 387.37 609.63 369.05 598.92 C 352.66 588.51 337.01 576.20 326.01 559.98 C 325.04 558.55 324.09 557.08 322.85 555.87 C 318.94 555.45 314.98 555.96 311.07 556.18 C 298.06 558.16 285.00 560.06 272.24 563.34 C 263.75 565.37 255.57 568.64 246.92 569.98 C 243.02 570.56 238.58 568.61 237.09 564.83 C 236.75 562.65 236.77 560.42 237.16 558.27 C 239.09 555.06 243.14 554.57 246.34 553.31 C 256.40 550.29 266.17 546.19 276.56 544.37 C 288.65 542.10 300.81 540.20 313.01 538.65 C 311.44 534.98 310.40 531.09 308.40 527.62 C 307.69 526.46 306.11 526.49 304.95 526.15 C 301.21 525.61 297.56 524.62 293.83 524.08 C 281.88 522.85 269.93 524.28 257.96 524.03 C 247.58 524.91 237.16 525.17 226.88 526.90 C 224.24 527.48 221.50 525.90 220.20 523.64 C 218.42 519.11 220.04 512.52 225.38 511.45 C 230.79 510.42 236.38 511.40 241.85 510.80 C 252.20 509.54 262.65 510.44 273.02 509.44 C 282.86 509.60 292.70 509.46 302.53 509.24 C 300.78 501.28 299.71 493.20 298.69 485.12 C 297.19 478.53 297.71 471.74 297.29 465.05 C 297.26 457.37 296.83 449.67 297.89 442.04 C 297.83 430.95 300.37 420.04 303.52 409.46 C 310.36 390.06 319.42 370.86 333.77 355.84 C 329.23 343.11 327.58 329.48 327.98 316.01 C 327.68 301.79 330.24 287.56 335.28 274.27 C 337.15 270.06 338.62 265.30 342.26 262.24 M 294.71 613.02 C 298.13 619.42 304.98 622.48 310.78 626.27 C 314.54 628.77 318.66 630.89 321.82 634.19 C 327.74 641.22 333.58 648.60 336.57 657.43 C 340.83 669.71 348.14 681.56 359.44 688.47 C 363.31 690.53 366.84 693.16 370.74 695.17 C 375.66 697.32 381.08 697.88 386.33 698.73 C 398.49 699.52 410.79 699.82 422.85 697.83 C 423.08 689.14 421.96 680.48 421.89 671.78 C 405.58 677.60 386.82 679.05 370.92 671.19 C 360.37 666.36 352.08 657.69 345.93 648.03 C 340.45 638.84 334.51 629.73 326.49 622.55 C 321.46 618.11 314.83 616.39 308.60 614.35 C 304.11 612.91 299.37 612.91 294.71 613.02 Z" />
<path fill="#09e4b1" opacity="1.00" d=" M 439.43 416.53 C 462.02 414.89 484.37 420.12 506.97 419.18 C 520.32 418.64 533.72 419.60 547.04 418.20 C 558.38 417.76 569.64 415.99 581.00 416.12 C 587.04 415.93 593.03 416.97 599.07 417.07 C 608.53 418.06 618.33 418.72 627.05 422.90 C 633.49 426.13 639.95 429.75 644.79 435.20 C 650.23 441.19 655.84 447.28 659.21 454.74 C 664.76 467.09 666.59 480.68 667.15 494.10 C 667.69 499.06 668.38 504.05 667.83 509.06 C 667.86 520.17 666.00 531.60 660.59 541.45 C 657.01 548.44 654.02 555.84 649.06 562.02 C 645.78 566.04 642.56 570.22 638.38 573.37 C 632.07 578.19 625.88 583.29 618.73 586.85 C 611.33 590.86 603.43 593.84 595.47 596.53 C 586.42 600.27 576.50 600.58 566.92 601.86 C 557.80 602.66 548.78 604.30 539.71 605.46 C 526.24 606.76 512.68 607.50 499.15 606.77 C 489.58 605.68 479.91 605.37 470.43 603.57 C 459.57 601.94 448.48 601.90 437.77 599.28 C 420.28 595.30 403.07 588.38 389.22 576.76 C 381.23 570.10 373.54 562.67 368.77 553.29 C 365.26 546.34 360.55 539.77 359.10 531.97 C 358.16 526.62 356.90 521.33 356.12 515.95 C 355.52 503.06 356.70 490.17 358.47 477.41 C 360.48 464.30 364.62 450.81 374.20 441.18 C 379.31 436.32 383.65 430.51 389.82 426.88 C 397.11 422.13 405.53 419.52 414.01 417.87 C 422.37 416.03 430.96 417.10 439.43 416.53 M 428.43 434.50 C 417.40 436.31 405.42 437.14 396.22 444.20 C 387.57 450.23 381.88 459.63 378.50 469.45 C 373.78 484.80 373.31 501.07 374.01 517.00 C 375.20 525.02 377.68 532.84 380.57 540.40 C 387.06 552.36 397.34 562.09 409.02 568.96 C 414.85 572.46 421.23 574.86 427.41 577.65 C 429.55 578.55 431.71 579.56 434.06 579.84 C 443.62 580.31 452.71 583.77 462.22 584.71 C 475.46 586.06 488.66 588.37 502.00 588.00 C 512.69 587.91 523.39 588.17 534.07 587.90 C 548.67 586.06 563.48 585.43 577.81 581.83 C 583.47 580.34 589.49 580.38 594.91 577.98 C 609.87 572.83 623.68 564.14 634.39 552.46 C 644.70 541.73 648.90 526.58 649.95 512.08 C 650.16 496.56 649.41 480.61 644.11 465.87 C 640.47 455.29 632.48 446.50 622.74 441.15 C 605.03 432.81 584.93 434.76 565.95 435.05 C 556.02 435.90 546.09 436.65 536.14 437.23 C 527.80 438.33 519.38 437.93 511.00 438.00 C 504.69 437.93 498.33 438.36 492.10 437.19 C 476.06 436.60 460.07 434.25 443.99 434.73 C 438.79 434.92 433.60 433.78 428.43 434.50 Z" />
<path fill="#09e4b1" opacity="1.00" d=" M 429.28 469.19 C 436.26 468.08 443.92 469.86 448.92 475.09 C 459.99 485.60 460.54 504.02 452.43 516.43 C 447.32 523.12 439.08 528.09 430.45 527.48 C 421.53 526.48 414.49 518.78 412.84 510.19 C 411.21 501.38 411.66 492.13 414.66 483.65 C 416.49 476.75 422.06 470.46 429.28 469.19 Z" />
<path fill="#09e4b1" opacity="1.00" d=" M 587.29 469.26 C 591.50 468.53 596.12 468.83 599.83 471.16 C 605.84 474.84 609.38 481.55 610.69 488.32 C 612.01 495.71 611.91 503.44 609.80 510.68 C 609.22 512.32 610.11 514.02 609.78 515.68 C 606.61 521.17 601.51 526.22 594.98 527.16 C 588.85 528.44 582.61 526.01 577.86 522.21 C 571.88 517.19 567.27 510.03 567.06 502.03 C 566.90 494.07 568.07 485.53 572.98 478.99 C 576.37 474.16 581.65 470.85 587.29 469.26 Z" />
<path fill="#09e4b1" opacity="1.00" d=" M 509.63 532.66 C 516.96 530.38 525.74 537.04 524.13 544.96 C 522.70 554.66 508.05 556.96 502.69 549.32 C 499.77 545.98 500.84 541.07 503.12 537.71 C 503.17 534.36 507.03 533.46 509.63 532.66 Z" />
</g>
</svg>
