<?xml version="1.0" encoding="UTF-8" ?>
<!DOCTYPE svg PUBLIC "-//W3C//DTD SVG 1.1//EN" "http://www.w3.org/Graphics/SVG/1.1/DTD/svg11.dtd">
<svg width="1024pt" height="1024pt" viewBox="0 0 1024 1024" version="1.1" xmlns="http://www.w3.org/2000/svg">
<g id="#141430ff">
<path fill="#141430" opacity="1.00" d=" M 0.00 0.00 L 1024.00 0.00 L 1024.00 1024.00 L 0.00 1024.00 L 0.00 0.00 M 396.86 225.85 C 392.23 228.02 389.82 233.14 389.04 237.96 C 388.65 246.59 389.00 255.24 388.86 263.89 C 373.25 263.87 357.63 263.76 342.02 263.95 C 330.70 264.93 319.46 267.93 309.41 273.31 C 281.81 287.48 263.59 317.95 264.00 348.94 C 264.02 456.63 263.96 564.31 264.03 672.00 C 264.91 679.64 266.02 687.31 268.42 694.65 C 273.80 711.79 284.80 727.15 299.35 737.71 C 312.52 747.49 328.63 752.92 344.95 754.00 C 455.62 754.00 566.30 754.00 676.97 754.01 C 700.16 752.69 722.68 741.62 737.86 723.99 C 748.94 711.41 756.16 695.59 758.87 679.07 C 761.02 668.52 760.20 657.71 760.34 647.02 C 760.38 548.02 760.39 449.01 760.32 350.01 C 760.56 324.02 748.14 298.34 727.85 282.15 C 712.74 270.16 693.40 263.19 674.05 263.86 C 661.12 263.73 648.14 264.15 635.25 263.63 C 635.09 255.78 635.37 247.92 635.13 240.07 C 635.07 233.74 631.23 227.14 625.04 225.12 C 617.17 223.86 611.97 232.12 611.04 238.93 C 610.94 247.28 611.03 255.63 611.00 263.98 C 602.01 263.72 593.01 263.92 584.02 263.86 C 527.02 263.91 470.01 263.74 413.00 263.94 C 412.96 255.61 413.07 247.27 412.95 238.93 C 412.01 233.89 409.60 228.47 404.77 226.08 C 402.36 224.78 399.29 224.48 396.86 225.85 Z" />
<path fill="#141430" opacity="1.00" d=" M 314.99 297.96 C 323.72 291.80 334.30 288.66 344.90 288.01 C 359.58 287.99 374.26 287.99 388.94 288.01 C 388.82 297.01 388.89 306.01 388.91 315.00 C 388.74 318.93 390.57 322.96 393.84 325.21 C 397.22 327.65 401.84 327.73 405.69 326.52 C 410.42 324.43 413.22 319.09 413.00 314.02 C 413.00 305.35 413.00 296.67 413.00 288.00 C 479.00 288.00 545.00 288.00 611.00 288.00 C 611.02 297.03 610.94 306.07 611.04 315.11 C 611.40 320.96 615.78 327.09 622.06 327.22 C 628.77 328.48 635.49 322.71 635.20 315.90 C 635.28 306.63 635.26 297.35 635.18 288.08 C 648.11 287.89 661.06 288.05 674.00 288.00 C 685.78 287.93 697.77 290.64 707.65 297.27 C 724.89 308.28 736.15 328.52 735.45 349.08 C 735.48 452.06 735.48 555.04 735.45 658.02 C 735.33 665.40 735.94 672.95 733.84 680.15 C 729.22 702.22 711.98 721.28 690.13 727.30 C 681.97 729.76 673.38 729.50 664.96 729.45 C 558.97 729.43 452.97 729.44 346.97 729.44 C 332.45 729.23 318.22 723.28 307.71 713.30 C 296.69 702.87 289.72 688.19 289.00 673.02 C 289.01 562.67 288.99 452.33 289.00 341.99 C 290.22 324.32 300.38 307.80 314.99 297.96 M 496.52 372.64 C 453.19 377.14 412.91 403.24 390.64 440.60 C 383.86 450.80 379.34 462.27 375.73 473.91 C 367.32 505.36 369.37 539.73 382.49 569.61 C 390.60 586.72 401.49 602.71 415.67 615.37 C 447.93 645.68 494.92 660.03 538.47 651.55 C 565.92 646.79 591.35 632.57 610.77 612.75 C 614.84 608.75 619.03 604.79 622.22 600.01 C 625.42 594.48 624.10 586.88 619.20 582.77 C 605.48 571.21 591.58 559.84 577.99 548.13 C 573.77 543.80 566.17 543.68 561.74 547.73 C 555.77 553.14 550.81 559.84 543.63 563.78 C 519.01 579.26 482.91 572.89 465.75 549.19 C 456.35 536.38 452.15 519.72 454.95 504.03 C 456.74 492.00 462.14 480.38 470.40 471.40 C 481.76 459.33 498.41 452.18 515.01 452.99 C 527.30 452.89 539.43 457.37 549.14 464.82 C 553.10 468.21 556.65 472.03 560.31 475.74 C 562.97 478.48 566.98 480.06 570.80 479.46 C 576.07 478.97 579.59 474.52 583.43 471.38 C 595.46 461.10 607.61 450.96 619.53 440.54 C 624.72 435.80 625.19 426.80 620.34 421.66 C 617.41 418.56 614.35 415.59 611.38 412.53 C 601.91 402.10 590.33 393.73 577.94 387.12 C 553.12 374.06 524.26 369.46 496.52 372.64 Z" />
<path fill="#141430" opacity="1.00" d=" M 496.07 396.71 C 523.32 392.55 552.31 398.17 575.40 413.51 C 583.41 418.40 590.38 424.83 596.80 431.63 C 588.72 438.63 580.39 445.36 572.46 452.54 C 571.44 453.84 569.97 452.66 569.26 451.73 C 558.33 440.83 544.12 433.19 528.83 430.73 C 504.40 426.04 477.99 432.93 459.10 449.20 C 445.25 460.50 436.02 476.83 431.71 494.04 C 424.08 524.59 435.79 559.00 460.77 578.25 C 466.29 582.26 471.98 586.23 478.36 588.76 C 508.94 602.68 548.57 596.38 571.48 571.16 C 580.35 577.85 588.55 585.45 597.24 592.40 C 579.60 612.42 554.57 626.07 527.96 629.01 C 516.42 630.96 504.57 629.99 493.06 628.15 C 456.54 622.35 423.26 598.27 406.96 564.98 C 396.44 543.78 392.72 519.40 396.06 496.03 C 399.85 465.43 417.38 437.38 441.91 419.01 C 457.73 407.28 476.47 399.21 496.07 396.71 Z" />
</g>
<g id="#09e4b1ff">
<path fill="#09e4b1" opacity="1.00" d=" M 396.86 225.85 C 399.29 224.48 402.36 224.78 404.77 226.08 C 409.60 228.47 412.01 233.89 412.95 238.93 C 413.07 247.27 412.96 255.61 413.00 263.94 C 470.01 263.74 527.02 263.91 584.02 263.86 C 593.01 263.92 602.01 263.72 611.00 263.98 C 611.03 255.63 610.94 247.28 611.04 238.93 C 611.97 232.12 617.17 223.86 625.04 225.12 C 631.23 227.14 635.07 233.74 635.13 240.07 C 635.37 247.92 635.09 255.78 635.25 263.63 C 648.14 264.15 661.12 263.73 674.05 263.86 C 693.40 263.19 712.74 270.16 727.85 282.15 C 748.14 298.34 760.56 324.02 760.32 350.01 C 760.39 449.01 760.38 548.02 760.34 647.02 C 760.20 657.71 761.02 668.52 758.87 679.07 C 756.16 695.59 748.94 711.41 737.86 723.99 C 722.68 741.62 700.16 752.69 676.97 754.01 C 566.30 754.00 455.62 754.00 344.95 754.00 C 328.63 752.92 312.52 747.49 299.35 737.71 C 284.80 727.15 273.80 711.79 268.42 694.65 C 266.02 687.31 264.91 679.64 264.03 672.00 C 263.96 564.31 264.02 456.63 264.00 348.94 C 263.59 317.95 281.81 287.48 309.41 273.31 C 319.46 267.93 330.70 264.93 342.02 263.95 C 357.63 263.76 373.25 263.87 388.86 263.89 C 389.00 255.24 388.65 246.59 389.04 237.96 C 389.82 233.14 392.23 228.02 396.86 225.85 M 314.99 297.96 C 300.38 307.80 290.22 324.32 289.00 341.99 C 288.99 452.33 289.01 562.67 289.00 673.02 C 289.72 688.19 296.69 702.87 307.71 713.30 C 318.22 723.28 332.45 729.23 346.97 729.44 C 452.97 729.44 558.97 729.43 664.96 729.45 C 673.38 729.50 681.97 729.76 690.13 727.30 C 711.98 721.28 729.22 702.22 733.84 680.15 C 735.94 672.95 735.33 665.40 735.45 658.02 C 735.48 555.04 735.48 452.06 735.45 349.08 C 736.15 328.52 724.89 308.28 707.65 297.27 C 697.77 290.64 685.78 287.93 674.00 288.00 C 661.06 288.05 648.11 287.89 635.18 288.08 C 635.26 297.35 635.28 306.63 635.20 315.90 C 635.49 322.71 628.77 328.48 622.06 327.22 C 615.78 327.09 611.40 320.96 611.04 315.11 C 610.94 306.07 611.02 297.03 611.00 288.00 C 545.00 288.00 479.00 288.00 413.00 288.00 C 413.00 296.67 413.00 305.35 413.00 314.02 C 413.22 319.09 410.42 324.43 405.69 326.52 C 401.84 327.73 397.22 327.65 393.84 325.21 C 390.57 322.96 388.74 318.93 388.91 315.00 C 388.89 306.01 388.82 297.01 388.94 288.01 C 374.26 287.99 359.58 287.99 344.90 288.01 C 334.30 288.66 323.72 291.80 314.99 297.96 Z" />
<path fill="#09e4b1" opacity="1.00" d=" M 496.52 372.64 C 524.26 369.46 553.12 374.06 577.94 387.12 C 590.33 393.73 601.91 402.10 611.38 412.53 C 614.35 415.59 617.41 418.56 620.34 421.66 C 625.19 426.80 624.72 435.80 619.53 440.54 C 607.61 450.96 595.46 461.10 583.43 471.38 C 579.59 474.52 576.07 478.97 570.80 479.46 C 566.98 480.06 562.97 478.48 560.31 475.74 C 556.65 472.03 553.10 468.21 549.14 464.82 C 539.43 457.37 527.30 452.89 515.01 452.99 C 498.41 452.18 481.76 459.33 470.40 471.40 C 462.14 480.38 456.74 492.00 454.95 504.03 C 452.15 519.72 456.35 536.38 465.75 549.19 C 482.91 572.89 519.01 579.26 543.63 563.78 C 550.81 559.84 555.77 553.14 561.74 547.73 C 566.17 543.68 573.77 543.80 577.99 548.13 C 591.58 559.84 605.48 571.21 619.20 582.77 C 624.10 586.88 625.42 594.48 622.22 600.01 C 619.03 604.79 614.84 608.75 610.77 612.75 C 591.35 632.57 565.92 646.79 538.47 651.55 C 494.92 660.03 447.93 645.68 415.67 615.37 C 401.49 602.71 390.60 586.72 382.49 569.61 C 369.37 539.73 367.32 505.36 375.73 473.91 C 379.34 462.27 383.86 450.80 390.64 440.60 C 412.91 403.24 453.19 377.14 496.52 372.64 M 496.07 396.71 C 476.47 399.21 457.73 407.28 441.91 419.01 C 417.38 437.38 399.85 465.43 396.06 496.03 C 392.72 519.40 396.44 543.78 406.96 564.98 C 423.26 598.27 456.54 622.35 493.06 628.15 C 504.57 629.99 516.42 630.96 527.96 629.01 C 554.57 626.07 579.60 612.42 597.24 592.40 C 588.55 585.45 580.35 577.85 571.48 571.16 C 548.57 596.38 508.94 602.68 478.36 588.76 C 471.98 586.23 466.29 582.26 460.77 578.25 C 435.79 559.00 424.08 524.59 431.71 494.04 C 436.02 476.83 445.25 460.50 459.10 449.20 C 477.99 432.93 504.40 426.04 528.83 430.73 C 544.12 433.19 558.33 440.83 569.26 451.73 C 569.97 452.66 571.44 453.84 572.46 452.54 C 580.39 445.36 588.72 438.63 596.80 431.63 C 590.38 424.83 583.41 418.40 575.40 413.51 C 552.31 398.17 523.32 392.55 496.07 396.71 Z" />
</g>
</svg>
