<?xml version="1.0" encoding="UTF-8" ?>
<!DOCTYPE svg PUBLIC "-//W3C//DTD SVG 1.1//EN" "http://www.w3.org/Graphics/SVG/1.1/DTD/svg11.dtd">
<svg width="1024pt" height="1024pt" viewBox="0 0 1024 1024" version="1.1" xmlns="http://www.w3.org/2000/svg">
<g id="#141430ff">
<path fill="#141430" opacity="1.00" d=" M 0.00 0.00 L 1024.00 0.00 L 1024.00 1024.00 L 0.00 1024.00 L 0.00 0.00 M 361.31 304.26 C 351.25 305.25 341.33 308.35 332.80 313.83 C 322.72 319.98 315.01 329.49 310.10 340.15 C 306.67 347.96 305.48 356.51 305.00 364.95 C 305.00 463.99 304.99 563.02 305.01 662.06 C 305.94 674.85 310.21 687.57 318.55 697.47 C 329.81 711.80 347.98 719.70 365.99 720.00 C 463.34 720.00 560.68 720.00 658.03 720.00 C 673.67 719.57 689.34 713.64 700.62 702.63 C 712.32 691.33 719.00 675.22 719.00 658.99 C 719.00 561.00 719.00 463.00 719.00 365.01 C 719.15 349.23 713.23 333.24 701.86 322.13 C 690.18 309.69 672.81 303.78 655.99 304.00 C 572.33 304.00 488.66 304.00 405.00 304.00 C 390.44 304.17 375.85 303.66 361.31 304.26 Z" />
<path fill="#141430" opacity="1.00" d=" M 361.47 321.64 C 374.95 321.01 388.49 321.54 402.00 321.35 C 487.35 321.36 572.70 321.35 658.05 321.36 C 668.04 321.53 678.19 324.60 686.02 330.95 C 694.80 337.90 700.30 348.81 700.99 359.95 C 700.99 461.32 701.02 562.69 700.98 664.07 C 700.03 673.18 696.53 682.38 689.83 688.84 C 683.53 695.63 674.90 700.06 665.85 701.82 C 661.60 702.54 657.28 702.23 653.00 702.24 C 556.00 702.22 458.99 702.25 361.99 702.23 C 341.84 700.85 323.86 683.47 323.01 663.05 C 322.99 563.36 323.01 463.66 323.00 363.96 C 323.10 352.27 327.63 340.37 336.55 332.57 C 343.36 326.26 352.39 322.96 361.47 321.64 M 400.31 366.36 C 388.99 368.63 378.49 376.21 373.92 386.97 C 371.85 392.44 370.33 398.44 371.62 404.28 C 373.23 415.13 380.38 425.03 390.25 429.84 C 405.68 437.96 426.83 433.29 436.85 418.85 C 442.57 411.13 444.96 400.89 442.47 391.54 C 439.97 380.69 431.35 371.69 420.92 368.04 C 414.41 365.45 407.16 365.35 400.31 366.36 M 530.29 476.31 C 527.92 479.12 526.54 482.61 524.09 485.35 C 523.94 476.19 523.95 467.03 524.09 457.87 C 506.39 457.93 488.69 457.83 470.99 457.93 C 471.00 517.63 471.01 577.32 470.99 637.02 C 489.99 636.99 509.00 636.99 528.01 637.02 C 528.00 605.00 527.96 572.98 528.03 540.95 C 529.25 530.72 531.64 520.22 537.56 511.59 C 543.18 503.34 552.89 497.64 563.00 497.99 C 570.17 497.69 577.60 500.17 582.74 505.26 C 589.80 512.67 593.00 522.92 593.95 532.92 C 593.81 538.63 594.95 544.29 594.62 550.01 C 594.63 579.01 594.50 608.02 594.69 637.02 C 613.24 636.98 631.78 636.99 650.33 637.02 C 650.44 607.01 650.31 577.00 650.36 547.00 C 650.30 536.30 650.65 525.61 649.94 514.93 C 648.48 500.58 644.43 486.04 635.54 474.44 C 626.42 461.61 611.39 454.18 596.11 451.71 C 572.02 447.98 545.45 456.72 530.29 476.31 M 377.72 457.93 C 377.63 517.62 377.61 577.33 377.73 637.02 C 396.53 636.98 415.33 637.00 434.14 637.01 C 434.29 577.32 434.20 517.61 434.14 457.91 C 415.33 457.93 396.52 457.81 377.72 457.93 Z" />
</g>
<g id="#09e4b1ff">
<path fill="#09e4b1" opacity="1.00" d=" M 361.31 304.26 C 375.85 303.66 390.44 304.17 405.00 304.00 C 488.66 304.00 572.33 304.00 655.99 304.00 C 672.81 303.78 690.18 309.69 701.86 322.13 C 713.23 333.24 719.15 349.23 719.00 365.01 C 719.00 463.00 719.00 561.00 719.00 658.99 C 719.00 675.22 712.32 691.33 700.62 702.63 C 689.34 713.64 673.67 719.57 658.03 720.00 C 560.68 720.00 463.34 720.00 365.99 720.00 C 347.98 719.70 329.81 711.80 318.55 697.47 C 310.21 687.57 305.94 674.85 305.01 662.06 C 304.99 563.02 305.00 463.99 305.00 364.95 C 305.48 356.51 306.67 347.96 310.10 340.15 C 315.01 329.49 322.72 319.98 332.80 313.83 C 341.33 308.35 351.25 305.25 361.31 304.26 M 361.47 321.64 C 352.39 322.96 343.36 326.26 336.55 332.57 C 327.63 340.37 323.10 352.27 323.00 363.96 C 323.01 463.66 322.99 563.36 323.01 663.05 C 323.86 683.47 341.84 700.85 361.99 702.23 C 458.99 702.25 556.00 702.22 653.00 702.24 C 657.28 702.23 661.60 702.54 665.85 701.82 C 674.90 700.06 683.53 695.63 689.83 688.84 C 696.53 682.38 700.03 673.18 700.98 664.07 C 701.02 562.69 700.99 461.32 700.99 359.95 C 700.30 348.81 694.80 337.90 686.02 330.95 C 678.19 324.60 668.04 321.53 658.05 321.36 C 572.70 321.35 487.35 321.36 402.00 321.35 C 388.49 321.54 374.95 321.01 361.47 321.64 Z" />
<path fill="#09e4b1" opacity="1.00" d=" M 400.31 366.36 C 407.16 365.35 414.41 365.45 420.92 368.04 C 431.35 371.69 439.97 380.69 442.47 391.54 C 444.96 400.89 442.57 411.13 436.85 418.85 C 426.83 433.29 405.68 437.96 390.25 429.84 C 380.38 425.03 373.23 415.13 371.62 404.28 C 370.33 398.44 371.85 392.44 373.92 386.97 C 378.49 376.21 388.99 368.63 400.31 366.36 Z" />
<path fill="#09e4b1" opacity="1.00" d=" M 530.29 476.31 C 545.45 456.72 572.02 447.98 596.11 451.71 C 611.39 454.18 626.42 461.61 635.54 474.44 C 644.43 486.04 648.48 500.58 649.94 514.93 C 650.65 525.61 650.30 536.30 650.36 547.00 C 650.31 577.00 650.44 607.01 650.33 637.02 C 631.78 636.99 613.24 636.98 594.69 637.02 C 594.50 608.02 594.63 579.01 594.62 550.01 C 594.95 544.29 593.81 538.63 593.95 532.92 C 593.00 522.92 589.80 512.67 582.74 505.26 C 577.60 500.17 570.17 497.69 563.00 497.99 C 552.89 497.64 543.18 503.34 537.56 511.59 C 531.64 520.22 529.25 530.72 528.03 540.95 C 527.96 572.98 528.00 605.00 528.01 637.02 C 509.00 636.99 489.99 636.99 470.99 637.02 C 471.01 577.32 471.00 517.63 470.99 457.93 C 488.69 457.83 506.39 457.93 524.09 457.87 C 523.95 467.03 523.94 476.19 524.09 485.35 C 526.54 482.61 527.92 479.12 530.29 476.31 Z" />
<path fill="#09e4b1" opacity="1.00" d=" M 377.72 457.93 C 396.52 457.81 415.33 457.93 434.14 457.91 C 434.20 517.61 434.29 577.32 434.14 637.01 C 415.33 637.00 396.53 636.98 377.73 637.02 C 377.61 577.33 377.63 517.62 377.72 457.93 Z" />
</g>
</svg>
