<?xml version="1.0" encoding="UTF-8" ?>
<!DOCTYPE svg PUBLIC "-//W3C//DTD SVG 1.1//EN" "http://www.w3.org/Graphics/SVG/1.1/DTD/svg11.dtd">
<svg width="1024pt" height="1024pt" viewBox="0 0 1024 1024" version="1.1" xmlns="http://www.w3.org/2000/svg">
<g id="#141430ff">
<path fill="#141430" opacity="1.00" d=" M 0.00 0.00 L 1024.00 0.00 L 1024.00 1024.00 L 0.00 1024.00 L 0.00 0.00 M 339.43 354.69 C 327.47 356.33 316.13 362.08 307.82 370.84 C 296.33 382.00 291.31 398.25 290.95 413.95 C 290.94 480.63 290.96 547.31 290.95 613.99 C 290.80 627.45 295.08 641.03 303.32 651.71 C 311.25 662.17 323.10 669.58 336.00 672.04 C 341.56 673.29 347.30 672.81 352.96 672.89 C 462.29 672.87 571.61 672.87 680.94 672.88 C 693.71 672.53 706.25 667.20 715.48 658.38 C 727.95 646.94 733.87 629.77 733.82 613.10 C 733.82 547.73 733.86 482.36 733.82 416.99 C 733.51 405.29 732.10 393.13 726.10 382.83 C 716.58 365.19 696.88 354.22 677.00 354.10 C 566.67 354.10 456.34 354.08 346.00 354.10 C 343.80 354.12 341.61 354.35 339.43 354.69 Z" />
<path fill="#141430" opacity="1.00" d=" M 314.23 391.45 C 321.43 379.92 334.34 372.04 348.05 371.85 C 457.04 371.81 566.03 371.82 675.02 371.84 C 689.04 371.85 703.16 379.31 710.25 391.55 C 693.62 405.76 677.91 421.01 661.54 435.51 C 642.69 453.04 623.53 470.22 604.67 487.75 C 597.03 495.16 588.87 501.99 580.96 509.11 C 572.04 517.80 562.47 525.80 553.60 534.56 C 545.19 541.26 538.39 550.48 527.90 554.16 C 514.22 558.76 497.80 558.05 486.10 548.90 C 462.45 527.59 439.17 505.85 415.64 484.39 C 405.13 474.23 393.98 464.74 383.40 454.64 C 365.12 437.58 346.52 420.84 328.18 403.84 C 323.71 399.51 319.13 395.28 314.23 391.45 Z" />
<path fill="#141430" opacity="1.00" d=" M 308.18 410.05 C 314.94 415.09 320.70 421.33 327.12 426.80 C 343.54 442.08 360.24 457.03 376.45 472.54 C 387.21 482.07 397.43 492.20 408.35 501.56 C 418.24 510.90 428.22 520.17 438.38 529.21 C 426.56 539.77 415.27 550.92 403.43 561.47 C 374.63 587.96 346.44 615.07 317.39 641.30 C 314.12 637.01 311.21 632.32 309.89 627.04 C 307.44 618.91 308.15 610.36 308.04 602.00 C 308.10 538.01 307.86 474.03 308.18 410.05 Z" />
<path fill="#141430" opacity="1.00" d=" M 683.50 439.48 C 694.38 429.85 704.87 419.81 715.55 409.96 C 716.17 423.63 715.69 437.34 715.84 451.03 C 715.84 506.04 715.83 561.04 715.84 616.05 C 715.75 625.12 712.96 634.37 706.89 641.26 C 698.82 633.27 690.37 625.66 681.93 618.06 C 661.19 597.78 639.27 578.79 618.07 559.02 C 606.93 549.36 596.50 538.92 585.43 529.17 C 602.58 514.44 618.83 498.74 635.57 483.56 C 651.77 469.11 667.52 454.17 683.50 439.48 Z" />
<path fill="#141430" opacity="1.00" d=" M 451.32 540.61 C 456.92 544.60 460.94 550.30 466.10 554.79 C 472.82 561.32 480.06 567.75 489.02 570.97 C 503.90 576.50 520.84 576.17 535.66 570.62 C 550.97 564.85 560.60 550.90 572.65 540.66 C 589.25 556.65 606.53 571.91 623.32 587.71 C 640.51 603.52 657.77 619.25 674.87 635.16 C 681.39 640.60 687.12 646.93 693.85 652.14 C 689.18 654.14 684.03 654.70 679.03 655.20 C 571.68 655.19 464.33 655.19 356.99 655.18 C 348.33 655.23 339.35 655.55 331.18 652.22 C 336.24 648.31 340.65 643.67 345.51 639.52 C 376.66 610.30 408.14 581.43 439.29 552.22 C 442.96 547.99 447.83 545.01 451.32 540.61 Z" />
</g>
<g id="#09e4b1ff">
<path fill="#09e4b1" opacity="1.00" d=" M 339.43 354.69 C 341.61 354.35 343.80 354.12 346.00 354.10 C 456.34 354.08 566.67 354.10 677.00 354.10 C 696.88 354.22 716.58 365.19 726.10 382.83 C 732.10 393.13 733.51 405.29 733.82 416.99 C 733.86 482.36 733.82 547.73 733.82 613.10 C 733.87 629.77 727.95 646.94 715.48 658.38 C 706.25 667.20 693.71 672.53 680.94 672.88 C 571.61 672.87 462.29 672.87 352.96 672.89 C 347.30 672.81 341.56 673.29 336.00 672.04 C 323.10 669.58 311.25 662.17 303.32 651.71 C 295.08 641.03 290.80 627.45 290.95 613.99 C 290.96 547.31 290.94 480.63 290.95 413.95 C 291.31 398.25 296.33 382.00 307.82 370.84 C 316.13 362.08 327.47 356.33 339.43 354.69 M 314.23 391.45 C 319.13 395.28 323.71 399.51 328.18 403.84 C 346.52 420.84 365.12 437.58 383.40 454.64 C 393.98 464.74 405.13 474.23 415.64 484.39 C 439.17 505.85 462.45 527.59 486.10 548.90 C 497.80 558.05 514.22 558.76 527.90 554.16 C 538.39 550.48 545.19 541.26 553.60 534.56 C 562.47 525.80 572.04 517.80 580.96 509.11 C 588.87 501.99 597.03 495.16 604.67 487.75 C 623.53 470.22 642.69 453.04 661.54 435.51 C 677.91 421.01 693.62 405.76 710.25 391.55 C 703.16 379.31 689.04 371.85 675.02 371.84 C 566.03 371.82 457.04 371.81 348.05 371.85 C 334.34 372.04 321.43 379.92 314.23 391.45 M 308.18 410.05 C 307.86 474.03 308.10 538.01 308.04 602.00 C 308.15 610.36 307.44 618.91 309.89 627.04 C 311.21 632.32 314.12 637.01 317.39 641.30 C 346.44 615.07 374.63 587.96 403.43 561.47 C 415.27 550.92 426.56 539.77 438.38 529.21 C 428.22 520.17 418.24 510.90 408.35 501.56 C 397.43 492.20 387.21 482.07 376.45 472.54 C 360.24 457.03 343.54 442.08 327.12 426.80 C 320.70 421.33 314.94 415.09 308.18 410.05 M 683.50 439.48 C 667.52 454.17 651.77 469.11 635.57 483.56 C 618.83 498.74 602.58 514.44 585.43 529.17 C 596.50 538.92 606.93 549.36 618.07 559.02 C 639.27 578.79 661.19 597.78 681.93 618.06 C 690.37 625.66 698.82 633.27 706.89 641.26 C 712.96 634.37 715.75 625.12 715.84 616.05 C 715.83 561.04 715.84 506.04 715.84 451.03 C 715.69 437.34 716.17 423.63 715.55 409.96 C 704.87 419.81 694.38 429.85 683.50 439.48 M 451.32 540.61 C 447.83 545.01 442.96 547.99 439.29 552.22 C 408.14 581.43 376.66 610.30 345.51 639.52 C 340.65 643.67 336.24 648.31 331.18 652.22 C 339.35 655.55 348.33 655.23 356.99 655.18 C 464.33 655.19 571.68 655.19 679.03 655.20 C 684.03 654.70 689.18 654.14 693.85 652.14 C 687.12 646.93 681.39 640.60 674.87 635.16 C 657.77 619.25 640.51 603.52 623.32 587.71 C 606.53 571.91 589.25 556.65 572.65 540.66 C 560.60 550.90 550.97 564.85 535.66 570.62 C 520.84 576.17 503.90 576.50 489.02 570.97 C 480.06 567.75 472.82 561.32 466.10 554.79 C 460.94 550.30 456.92 544.60 451.32 540.61 Z" />
</g>
</svg>
