<svg width="871" height="871" viewBox="0 0 871 871" fill="none" xmlns="http://www.w3.org/2000/svg">
<g clip-path="url(#clip0_14_97965)">
<mask id="mask0_14_97965" style="mask-type:luminance" maskUnits="userSpaceOnUse" x="0" y="0" width="871" height="871">
<path d="M870.75 0H0V870.75H870.75V0Z" fill="white"/>
</mask>
<g mask="url(#mask0_14_97965)">
<path d="M207.462 688.349C207.462 688.349 126.982 650.416 85.7031 560.711" stroke="#707070" stroke-width="10.1489" stroke-miterlimit="10"/>
<path d="M231.266 643.569C231.266 643.569 166.237 612.919 132.883 540.436" stroke="#707070" stroke-width="10.1489" stroke-miterlimit="10"/>
<path d="M514.025 84.4254C514.025 84.4254 587.581 134.48 614.32 229.537" stroke="#707070" stroke-width="10.1489" stroke-miterlimit="10"/>
<path d="M483.51 124.931C483.51 124.931 542.945 165.376 564.551 242.184" stroke="#707070" stroke-width="10.1489" stroke-miterlimit="10"/>
<path d="M549.746 339.57C530.179 317.634 477.405 245.897 457.802 221.553C398.576 148.004 353.381 72.9396 311.069 97.3377C270.071 120.978 322.966 176.333 367.854 236.452C413.36 297.4 454.52 338.156 442.916 353.626L549.746 339.57Z" fill="#FCCE2C"/>
<path d="M382.76 433.76C387.488 427.137 343.399 381.132 279.522 309.659C208.951 230.696 160.323 167.278 191.229 141.931C227.972 111.796 261.932 157.471 325.024 229.686C376.391 288.481 433.346 364.339 442.914 353.629" fill="#FCCE2C"/>
<path d="M382.764 433.759C371.482 447.455 335.585 410.655 267.423 336.104C215.176 278.959 169.511 234.916 143.955 258.854C113.636 287.251 166.119 345.329 232.373 412.515C298.628 479.701 349.338 519.228 340.061 531.386" fill="#FCCE2C"/>
<path d="M165.211 302.106C165.211 302.106 161.467 284.598 186.716 288.411C214.585 292.619 227.318 309.29 258.553 329.5C258.553 329.5 197.723 252.618 173.84 248.729C134.373 242.306 148.531 285.873 165.211 302.106Z" fill="#FFD75D"/>
<path d="M340.058 531.387C334.249 538.901 297.374 502.58 258.219 469.798C206.954 426.876 179.04 407.219 157.518 426.987C125.589 456.311 169.736 498.914 233.935 554.409C269.936 585.529 309.652 623.545 332.035 644.784L340.058 531.387Z" fill="#FCCE2C"/>
<path d="M181.404 474.071C181.404 474.071 167.214 449.425 182.698 443.901C198.182 438.376 238.531 461.18 256.38 467.96C256.38 467.96 195.736 400.224 157.519 426.988C119.302 453.751 181.404 474.071 181.404 474.071Z" fill="#FFD75D"/>
<path d="M549.748 339.572C607.477 407.475 631.413 410.853 649.539 384.37C667.668 357.888 659.275 318.843 670.142 288.45C681.01 258.057 736.975 219.168 770.224 241.265C803.473 263.362 786.328 286.771 771.303 314.327C756.279 341.883 749.561 374.708 749.124 414.825C748.688 454.942 748.701 467.353 759.053 529.506C769.406 591.658 749.206 649.137 716.472 689.264C684.47 728.495 623.368 775.825 552.103 774.581C467.278 773.101 362.724 673.115 332.038 644.784C332.038 644.784 297.776 565.061 337.285 526.767C337.285 526.767 326.131 460.208 377.712 429.269C377.712 429.269 383.196 364.75 442.874 350.679C442.874 350.679 496.208 276.598 549.748 339.572Z" fill="#FCCE2C"/>
<path d="M211.015 200C198.214 141.214 249.034 169.004 291.848 197.557C273.108 170.4 253.574 153.615 235.948 141.491C204.879 120.12 175.328 143.989 211.015 200Z" fill="#FFD75D"/>
<g opacity="0.15">
<path d="M733.144 242.447C658.558 270.628 695.621 362.892 658.334 395.988C636.052 415.766 618.338 416.287 588.239 469.274C559.537 519.801 582.482 577.535 574.237 578.79C565.992 580.046 552.061 554.331 549.017 517.821C545.044 470.171 566.952 426.719 577.462 407.123C587.973 387.544 576.933 371.308 576.933 371.308C609.276 409.988 634.851 405.814 649.538 384.377C667.667 357.898 659.279 318.85 670.138 288.458C677.238 268.63 702.872 244.35 733.144 242.447Z" fill="#F09201"/>
</g>
<path d="M354.098 134.233C322.606 114.523 315.634 136.5 315.634 136.5C307.668 127.213 304.258 101.746 311.076 97.3476C345.236 75.3098 392.485 133.526 424.407 178.802C407.127 168.745 366.148 141.773 354.098 134.233Z" fill="#FFD75D"/>
<g opacity="0.15">
<path d="M625.656 400.602C602.864 422.882 537.413 360.08 502.388 313.251C468.876 268.444 387.241 164.353 362.686 135.756C340.994 110.493 334.108 100.594 311.075 97.3466C352.536 71.575 398.57 148.001 457.807 221.561C477.411 245.897 571.957 399.613 625.656 400.602Z" fill="#F09201"/>
</g>
<g opacity="0.3">
<path d="M625.656 400.602C593.317 413.38 540.883 355.924 505.859 309.094C472.347 264.287 389.204 157.759 364.649 129.162C342.957 103.899 334.108 100.594 311.075 97.3466C352.536 71.575 398.57 148.001 457.807 221.561C477.411 245.897 571.957 399.613 625.656 400.602Z" fill="#F09201"/>
</g>
<g opacity="0.5">
<path d="M625.656 400.602C588.545 408.628 544.656 353.122 509.632 306.292C476.12 261.486 392.422 156.161 367.868 127.564C346.175 102.301 332.517 99.0099 311.075 97.3466C352.536 71.575 398.57 148.001 457.807 221.561C477.411 245.897 571.957 399.613 625.656 400.602Z" fill="#F09201"/>
</g>
<g opacity="0.5">
<path d="M165.972 256.949C165.972 256.949 113.944 256.803 173.86 328.477C186.941 344.126 270.514 425.795 321.977 477.258C351.888 507.169 356.541 525.641 353.014 532.379C349.488 539.117 336.309 551.022 316.374 535.614C277.002 505.181 193.877 418.369 170.18 426.449C200.892 399.873 326.954 544.22 339.756 531.475C350.336 520.943 325.589 502.985 304.646 482.859C262.643 442.491 195.435 375.882 171.777 349.621C148.12 323.36 123.323 286.671 138.181 265.889C153.039 245.106 165.972 256.949 165.972 256.949Z" fill="#F09201"/>
</g>
<g opacity="0.3">
<path d="M165.972 256.949C165.972 256.949 119.895 252.977 178.537 324.65C191.452 340.434 273.677 420.94 325.803 471.732C362.668 507.654 359.268 523.811 353.865 533.655C350.207 540.32 333.757 554.847 313.823 539.44C274.451 509.007 189.412 421.557 169.967 426.875C204.506 394.773 326.954 544.22 339.756 531.475C350.336 520.943 325.589 502.985 304.646 482.859C262.643 442.491 195.435 375.882 171.777 349.621C148.12 323.36 123.323 286.671 138.181 265.889C153.039 245.106 165.972 256.949 165.972 256.949Z" fill="#F09201"/>
</g>
<g opacity="0.15">
<path d="M165.972 256.949C165.972 256.949 127.549 252.126 183.215 318.697C196.298 334.344 278.013 417.945 331.33 467.48C374.574 507.654 360.118 523.811 354.715 533.655C351.057 540.32 332.908 557.825 312.974 542.417C273.602 511.984 179.845 417.942 165.715 428.149C201.103 388.607 326.954 544.22 339.756 531.475C350.336 520.943 325.589 502.985 304.646 482.859C262.643 442.491 195.435 375.882 171.777 349.621C148.12 323.36 123.323 286.671 138.181 265.889C153.039 245.106 165.972 256.949 165.972 256.949Z" fill="#F09201"/>
</g>
<g opacity="0.5">
<path d="M217.767 139.55C217.767 139.55 163.406 135.259 220.189 212.965C232.585 229.931 308.248 318.453 366.909 377.01C401.076 411.119 398.455 431.545 394.221 438.121C389.987 444.698 370.78 452.36 351.202 435.094C312.533 400.991 182.557 251.822 157.134 258.157C191.394 233.56 360.92 445.545 375.336 433.595C387.25 423.721 364.548 402.625 344.301 380.477C303.69 336.054 238.877 262.922 216.29 234.315C193.704 205.707 170.777 166.399 187.997 146.434C205.217 126.47 217.767 139.55 217.767 139.55Z" fill="#F09201"/>
</g>
<g opacity="0.3">
<path d="M217.766 139.55C217.766 139.55 169.937 131.838 225.387 209.442C237.599 226.532 319.725 317.071 371.357 371.689C417.092 420.068 403.366 429.901 396.919 439.487C392.554 445.977 372.66 460.035 348.223 438.786C309.316 404.954 177.63 254.711 156.876 258.572C195.584 228.654 360.919 445.545 375.336 433.595C387.249 423.721 364.548 402.624 344.3 380.477C303.69 336.054 238.876 262.922 216.29 234.314C193.703 205.707 170.776 166.399 187.996 146.434C205.216 126.47 217.766 139.55 217.766 139.55Z" fill="#F09201"/>
</g>
<g opacity="0.15">
<path d="M217.767 139.55C217.767 139.55 178.005 131.583 230.76 203.759C243.16 220.723 325.782 313.245 377.48 367.804C429.422 422.619 404.892 431.246 398.445 440.831C394.08 447.322 377.975 468.326 347.093 441.746C308.015 408.115 167.926 250.27 152.328 259.532C192.532 222.111 360.919 445.545 375.336 433.595C387.249 423.721 364.548 402.624 344.301 380.477C303.69 336.054 238.876 262.922 216.29 234.315C193.704 205.707 170.776 166.399 187.996 146.434C205.216 126.47 217.767 139.55 217.767 139.55Z" fill="#F09201"/>
</g>
<g opacity="0.15">
<path d="M335.278 97.5128C335.278 97.5128 308.177 95.3564 331.907 136.219C357.998 181.148 397.962 227.744 430.899 272.589C462.139 315.128 476.415 348.218 455.748 365.135C444.661 374.209 433.134 381.43 402.384 350.628C367.096 315.271 224.219 129.627 201.702 143.523C253.513 93.7023 416.226 377.542 445.648 352.324C451.24 347.531 443.047 332.396 429.025 313.691C410.845 289.437 328.298 189.912 312.114 164.833C295.929 139.753 281.327 112.669 311.071 97.3381C323.073 91.1513 335.278 97.5128 335.278 97.5128Z" fill="#F09201"/>
</g>
<g opacity="0.3">
<path d="M335.278 97.5128C335.278 97.5128 300.981 97.2016 324.711 138.064C350.802 182.993 392.316 232.028 425.252 276.873C456.493 319.412 474.474 345.419 453.807 362.335C442.721 371.41 435.402 378.526 404.652 347.725C369.364 312.367 228.129 125.324 201.702 143.523C253.513 93.7023 416.226 377.542 445.648 352.324C451.24 347.531 443.047 332.396 429.025 313.691C410.845 289.437 328.298 189.912 312.114 164.833C295.929 139.753 281.327 112.669 311.071 97.3381C323.073 91.1513 335.278 97.5128 335.278 97.5128Z" fill="#F09201"/>
</g>
<g opacity="0.5">
<path d="M335.278 97.5128C335.278 97.5128 293.246 99.8345 316.976 140.697C343.067 185.626 386.221 236.138 419.886 280.436C449.898 320.028 470.257 343.93 451.569 360.206C440.764 369.612 435.991 373.369 407.175 344.602C371.977 309.166 230.345 118.037 201.702 143.523C253.513 93.7023 416.226 377.542 445.648 352.324C451.24 347.531 443.047 332.396 429.025 313.691C410.845 289.437 328.298 189.912 312.114 164.833C295.929 139.753 281.327 112.669 311.071 97.3381C323.073 91.1513 335.278 97.5128 335.278 97.5128Z" fill="#F09201"/>
</g>
<path d="M546.601 342.358C548.191 344.141 550.888 344.339 552.625 342.801C554.361 341.263 554.48 338.571 552.89 336.788L549.745 339.573L546.601 342.358ZM457.802 221.554L461.091 218.94L461.091 218.94L457.802 221.554ZM311.068 97.3385L313.296 101.038L313.296 101.038L311.068 97.3385ZM367.853 236.452L371.243 233.967L371.243 233.967L367.853 236.452ZM440.413 350.105C438.506 351.431 438.082 354.083 439.464 356.029C440.847 357.975 443.512 358.478 445.419 357.153L442.916 353.629L440.413 350.105ZM549.745 339.573L552.89 336.788C543.248 325.978 525.283 302.723 507.149 278.945C489.103 255.283 470.942 231.173 461.091 218.94L457.802 221.554L454.512 224.168C464.265 236.279 482.292 260.211 500.425 283.988C518.47 307.649 536.676 331.231 546.601 342.358L549.745 339.573ZM457.802 221.554L461.091 218.94C431.78 182.54 405.252 144.843 381.077 119.733C368.946 107.133 356.976 97.2148 345.044 92.1158C332.857 86.908 320.681 86.7374 308.841 93.6389L311.068 97.3385L313.296 101.038C322.552 95.6428 331.864 95.657 341.891 99.9418C352.172 104.335 363.144 113.218 375.019 125.552C398.855 150.311 424.597 187.019 454.512 224.168L457.802 221.554ZM311.068 97.3385L308.841 93.6389C297.397 100.309 292.052 109.51 291.907 120.615C291.769 131.267 296.431 143.104 303.416 155.416C310.454 167.821 320.187 181.273 330.862 195.267C341.632 209.386 353.233 223.896 364.464 238.938L367.853 236.452L371.243 233.967C360.029 218.949 348.137 204.056 337.586 190.223C326.94 176.267 317.523 163.22 310.803 151.376C304.03 139.439 300.326 129.278 300.434 120.978C300.536 113.131 304.049 106.428 313.296 101.038L311.068 97.3385ZM367.853 236.452L364.464 238.938C375.899 254.253 387.394 268.515 397.901 281.437C408.436 294.394 417.924 305.939 425.464 315.951C433.063 326.041 438.378 334.185 440.821 340.356C442.038 343.432 442.375 345.618 442.213 347.106C442.074 348.385 441.564 349.304 440.413 350.105L442.916 353.629L445.419 357.153C448.529 354.99 450.293 351.93 450.69 348.275C451.065 344.829 450.203 341.127 448.737 337.423C445.814 330.036 439.83 321.055 432.221 310.951C424.553 300.769 414.922 289.052 404.453 276.177C393.956 263.267 382.56 249.126 371.243 233.967L367.853 236.452Z" fill="#E17C00"/>
<path d="M379.511 430.907C377.988 432.657 378.209 435.353 380.005 436.928C381.801 438.503 384.491 438.362 386.014 436.612L382.763 433.759L379.511 430.907ZM283.148 309.713L286.34 306.982L286.34 306.982L283.148 309.713ZM191.232 141.93L188.469 138.603L188.469 138.603L191.232 141.93ZM325.025 229.685L328.199 226.935L328.199 226.935L325.025 229.685ZM445.873 356.786C447.57 355.204 447.621 352.508 445.988 350.764C444.355 349.02 441.656 348.889 439.96 350.471L442.916 353.629L445.873 356.786ZM382.763 433.759L386.014 436.612C388.33 433.951 389.474 430.809 389.357 427.286C389.245 423.922 387.995 420.514 386.136 417.124C382.455 410.41 375.619 402.429 366.644 392.862C348.442 373.457 320.466 346.515 286.34 306.982L283.148 309.713L279.956 312.443C314.218 352.135 342.682 379.595 360.506 398.597C369.545 408.232 375.619 415.456 378.687 421.051C380.202 423.815 380.786 425.838 380.835 427.318C380.879 428.64 380.511 429.757 379.511 430.907L382.763 433.759ZM283.148 309.713L286.34 306.982C256.156 272.015 224.772 237.528 205.151 208.147C195.331 193.442 188.782 180.472 186.657 169.705C184.59 159.227 186.736 151.217 193.995 145.257L191.232 141.93L188.469 138.603C178.337 146.921 175.77 158.327 178.293 171.116C180.759 183.615 188.103 197.762 198.103 212.736C218.124 242.716 250.088 277.842 279.956 312.443L283.148 309.713ZM191.232 141.93L193.995 145.257C202.508 138.268 210.421 135.972 218.386 136.969C226.568 137.993 235.462 142.569 245.676 150.701C266.224 167.061 290.075 196.067 321.85 232.436L325.025 229.685L328.199 226.935C296.882 191.089 272.239 161.109 250.865 144.091C240.118 135.534 229.694 129.822 219.198 128.509C208.484 127.168 198.358 130.484 188.469 138.603L191.232 141.93ZM325.025 229.685L321.85 232.436C334.633 247.068 347.557 262.873 359.991 278.203C372.403 293.507 384.35 308.367 395.1 321.002C405.811 333.592 415.529 344.207 423.492 350.92C427.438 354.246 431.265 356.886 434.793 358.214C438.401 359.571 442.613 359.828 445.873 356.786L442.916 353.629L439.96 350.471C439.94 350.49 439.613 351.006 437.587 350.244C435.483 349.452 432.583 347.595 428.875 344.468C421.529 338.276 412.225 328.165 401.525 315.589C390.863 303.057 379.008 288.311 366.55 272.951C354.114 257.618 341.1 241.701 328.199 226.935L325.025 229.685Z" fill="#E17C00"/>
<path d="M386.138 436.462C387.576 434.642 387.232 431.955 385.368 430.462C383.503 428.969 380.826 429.235 379.387 431.055L382.763 433.759L386.138 436.462ZM269.262 337.944L272.238 334.98L272.238 334.98L269.262 337.944ZM143.953 258.853L147.04 261.884L147.04 261.884L143.953 258.853ZM235.998 412.568L238.965 409.595L238.965 409.595L235.998 412.568ZM336.837 528.503C335.296 530.237 335.49 532.934 337.27 534.527C339.05 536.12 341.743 536.006 343.284 534.272L340.061 531.388L336.837 528.503ZM382.763 433.759L379.387 431.055C379.218 431.27 378.896 431.689 377.251 431.406C375.416 431.089 372.741 429.965 369.173 427.757C362.109 423.387 352.971 415.684 342.454 405.822C321.428 386.103 296.044 358.877 272.238 334.98L269.262 337.944L266.286 340.908C289.74 364.451 315.576 392.132 336.72 411.96C347.288 421.871 356.972 430.102 364.843 434.972C368.741 437.384 372.561 439.207 376.045 439.808C379.72 440.441 383.542 439.747 386.138 436.462L382.763 433.759ZM269.262 337.944L272.238 334.98C242.663 305.293 217.791 278.142 197.035 262.132C186.64 254.114 176.724 248.43 167.281 246.819C157.459 245.142 148.59 247.947 140.866 255.822L143.953 258.853L147.04 261.884C152.996 255.811 159.173 254.043 166.089 255.223C173.385 256.468 181.899 261.071 191.954 268.827C212.097 284.364 236.199 310.707 266.286 340.908L269.262 337.944ZM143.953 258.853L140.867 255.822C131.906 264.957 128.91 275.653 130.812 287.473C132.666 298.988 139.12 311.341 148.427 324.372C167.034 350.423 198.426 381.007 233.032 415.541L235.998 412.568L238.965 409.595C204.05 374.753 173.375 344.837 155.317 319.554C146.292 306.918 140.764 295.895 139.23 286.362C137.745 277.133 139.955 269.107 147.04 261.884L143.953 258.853ZM235.998 412.568L233.032 415.541C250.688 433.16 266.801 448.542 280.824 461.897C294.87 475.275 306.76 486.566 316.063 496.087C325.432 505.674 331.866 513.16 335.237 518.935C336.917 521.814 337.632 523.933 337.767 525.444C337.885 526.774 337.572 527.676 336.837 528.503L340.061 531.388L343.284 534.272C345.626 531.637 346.571 528.427 346.26 524.937C345.965 521.627 344.563 518.218 342.569 514.801C338.592 507.987 331.453 499.818 322.075 490.22C312.633 480.557 300.603 469.134 286.608 455.806C272.589 442.453 256.541 427.134 238.965 409.595L235.998 412.568Z" fill="#E17C00"/>
<g opacity="0.5">
<path d="M749.128 414.823C748.688 454.937 748.691 467.35 759.05 529.513C769.41 591.658 749.202 649.13 716.471 689.273C684.469 728.504 623.375 775.821 552.105 774.587C467.276 773.097 362.726 673.119 332.045 644.777C332.045 644.777 332.045 644.777 332.027 644.759C309.642 623.534 269.92 585.527 233.943 554.407C169.735 498.914 125.597 456.311 157.528 426.992C158.547 426.047 159.586 425.21 160.644 424.447L172.079 419.614L172.998 419.229C172.998 419.229 172.89 419.318 172.73 419.515C171.34 421.089 158.577 435.336 165.185 453.283C172.604 473.416 222.284 521.53 245.921 542.396C288.336 579.837 380.593 662.9 389.598 671.423C408.748 689.537 464.529 732.754 527.503 742.763C570.8 749.635 609.306 739.014 638.3 722.501C651.465 715.003 657.654 702.812 666.454 693.972C675.851 684.531 690.571 676.552 699.61 663.807C708.858 650.764 717.407 636.372 724.202 621.412C754.324 555.106 722.936 449.979 732.958 391.44C745.912 315.777 764.296 302.668 775.439 278.619C784.883 258.233 749.973 235.346 749.096 234.808C756.674 235.047 763.861 237.038 770.23 241.263C803.464 263.355 786.323 286.768 771.309 314.325C756.277 341.883 749.569 374.71 749.128 414.823Z" fill="#F09201"/>
</g>
<g opacity="0.3">
<path d="M749.128 414.823C748.688 454.937 748.691 467.35 759.05 529.513C769.41 591.658 749.202 649.13 716.471 689.273C684.469 728.504 623.375 775.821 552.105 774.587C467.276 773.097 362.726 673.119 332.045 644.777C332.045 644.777 332.045 644.777 332.027 644.759C309.642 623.534 269.92 585.527 233.943 554.407C169.735 498.914 125.597 456.311 157.528 426.992C158.547 426.047 159.586 425.21 160.644 424.447L172.079 419.614L172.998 419.229C172.998 419.229 172.89 419.318 172.73 419.515C171.34 421.089 160.929 434.18 167.536 452.127C174.956 472.26 225.977 517.257 249.615 538.123C292.029 575.565 384.342 657.252 393.347 665.776C412.497 683.89 467.983 723.059 525.057 732.634C562.943 738.989 602.216 734.665 628.708 713.966C642.004 703.578 644.378 691.724 652.354 683.709C661.309 674.712 674.444 671.696 689.232 657.213C701.073 645.617 709.014 632.238 716.123 616.588C746.245 550.283 714.576 448.86 724.598 390.322C737.553 314.658 760.999 302.07 772.141 278.021C781.585 257.635 749.973 235.346 749.096 234.808C756.674 235.047 763.861 237.038 770.23 241.263C803.464 263.355 786.323 286.768 771.309 314.325C756.277 341.883 749.569 374.71 749.128 414.823Z" fill="#F09201"/>
</g>
<g opacity="0.15">
<path d="M749.128 414.823C748.688 454.937 748.691 467.35 759.05 529.513C769.41 591.658 749.202 649.13 716.471 689.273C684.469 728.504 623.375 775.821 552.105 774.587C467.276 773.097 362.726 673.119 332.045 644.777C332.045 644.777 332.045 644.777 332.027 644.759C309.642 623.534 269.92 585.527 233.943 554.407C169.735 498.914 125.597 456.311 157.528 426.992C158.547 426.047 159.586 425.21 160.644 424.447L172.079 419.614L172.998 419.229C172.998 419.229 172.89 419.318 172.73 419.515C171.34 421.089 162.921 431.772 169.529 449.719C176.948 469.853 227.825 515.121 251.462 535.987C293.877 573.428 388.069 653.875 397.074 662.399C416.224 680.513 458.933 711.864 521.787 722.749C561.485 729.624 599.87 723.425 620.098 703.856C633.522 690.869 624.862 676.052 631.856 669.025C640.127 660.714 655.764 664.161 674.473 652.351C689.623 642.789 699.1 628.427 706.692 611.716C736.813 545.41 707.164 448.698 717.417 390.206C729.719 320.029 759.407 301.191 769.077 276.677C777.33 255.751 749.973 235.346 749.096 234.808C756.674 235.047 763.861 237.038 770.23 241.263C803.464 263.355 786.323 286.768 771.309 314.325C756.277 341.883 749.569 374.71 749.128 414.823Z" fill="#F09201"/>
</g>
<g opacity="0.1">
<path d="M749.128 414.823C748.688 454.937 748.691 467.35 759.05 529.513C769.41 591.658 749.202 649.13 716.471 689.273C684.469 728.504 623.375 775.821 552.105 774.587C467.276 773.097 362.726 673.119 332.045 644.777C332.045 644.777 332.045 644.777 332.027 644.759C309.642 623.534 269.92 585.527 233.943 554.407C169.735 498.914 125.597 456.311 157.528 426.992C158.547 426.047 159.586 425.21 160.644 424.447L172.079 419.614L172.998 419.229C172.998 419.229 172.89 419.318 172.73 419.515C171.34 421.089 165.355 429.337 171.962 447.283C179.382 467.417 229.899 512.973 253.536 533.839C295.951 571.281 392.136 650.839 401.141 659.362C420.291 677.476 463.979 704.345 520 713.755C572.774 722.618 602.862 702.615 608.9 686.624C612.37 677.433 610.644 670.418 606.199 659.228C601.921 648.459 600.693 639.096 613.948 646.872C627.663 654.917 672.673 651.407 698.645 604.14C733.669 540.398 701.477 452.923 711.499 394.385C724.453 318.721 761.101 301.26 767.116 273.21C771.85 251.129 749.973 235.346 749.096 234.808C756.674 235.047 763.861 237.038 770.23 241.263C803.464 263.355 786.323 286.768 771.309 314.325C756.277 341.883 749.569 374.71 749.128 414.823Z" fill="#F09201"/>
</g>
<g opacity="0.1">
<path d="M749.128 414.823C748.688 454.937 748.691 467.35 759.05 529.513C769.41 591.658 749.202 649.13 716.471 689.273C684.469 728.504 623.375 775.821 552.105 774.587C467.276 773.097 362.726 673.119 332.045 644.777C332.045 644.777 332.045 644.777 332.027 644.759C309.642 623.534 269.92 585.527 233.943 554.407C169.735 498.914 125.597 456.311 157.528 426.992C158.547 426.047 159.586 425.21 160.644 424.447L172.079 419.614L172.998 419.229C172.998 419.229 172.89 419.318 172.73 419.515C171.34 421.089 165.355 429.337 171.962 447.283C179.382 467.417 231.842 511.541 256.06 531.726C332.329 595.291 361.733 618.529 406.718 655.43C426.502 671.658 487.075 702.181 517.619 705.414C552.448 709.102 585.601 696.92 594.063 684.728C602.837 672.088 595.425 661.394 589.73 643.79C583.51 624.559 589.741 621.688 601.539 631.575C613.337 641.463 666.131 648.357 691.619 596.739C723.843 531.477 693.298 459.23 706.787 393.53C722.214 318.402 758.453 301.373 764.468 273.323C769.203 251.242 749.973 235.346 749.096 234.808C756.674 235.047 763.861 237.038 770.23 241.263C803.464 263.355 786.323 286.768 771.309 314.325C756.277 341.883 749.569 374.71 749.128 414.823Z" fill="#F09201"/>
</g>
<path d="M343.61 533.853C344.914 531.932 344.383 529.271 342.423 527.909C340.462 526.547 337.816 527 336.511 528.921L340.061 531.387L343.61 533.853ZM256.382 467.958L253.703 471.194L253.703 471.194L256.382 467.958ZM157.523 426.988L160.456 430.167L160.457 430.167L157.523 426.988ZM233.911 552.598L236.744 549.497L236.744 549.497L233.911 552.598ZM329.152 647.835C330.885 649.48 333.582 649.447 335.176 647.761C336.77 646.076 336.657 643.377 334.924 641.732L332.038 644.784L329.152 647.835ZM340.061 531.387L336.511 528.921C336.436 529.031 336.435 528.993 336.508 528.961C336.555 528.941 336.455 529.003 336.075 528.975C335.198 528.91 333.644 528.43 331.264 527.107C326.573 524.498 320.334 519.578 312.797 512.997C305.318 506.467 296.865 498.575 287.74 490.178C278.648 481.812 268.935 472.989 259.062 464.723L256.382 467.958L253.703 471.194C263.407 479.318 272.991 488.022 282.068 496.374C291.113 504.697 299.704 512.717 307.298 519.348C314.834 525.929 321.696 531.42 327.291 534.531C330.054 536.067 332.94 537.273 335.692 537.478C338.752 537.706 341.7 536.664 343.61 533.853L340.061 531.387ZM256.382 467.958L259.062 464.723C233.536 443.351 213.752 427.755 197.52 420.117C189.326 416.261 181.681 414.253 174.418 414.761C167.054 415.277 160.537 418.346 154.589 423.809L157.523 426.988L160.457 430.167C165.269 425.747 170.082 423.63 175.262 423.268C180.543 422.898 186.656 424.321 194.078 427.813C209.079 434.872 227.964 449.644 253.703 471.194L256.382 467.958ZM157.523 426.988L154.589 423.809C145.688 431.984 142.339 441.544 143.745 452.064C145.104 462.234 150.843 472.845 158.985 483.655C175.259 505.263 202.756 529.689 231.078 555.699L233.911 552.598L236.744 549.497C208.052 523.148 181.39 499.432 165.741 478.655C157.921 468.273 153.258 459.132 152.196 451.182C151.181 443.582 153.393 436.654 160.456 430.167L157.523 426.988ZM233.911 552.598L231.078 555.699C266.097 587.86 306.756 626.585 329.152 647.835L332.038 644.784L334.924 641.732C312.553 620.505 271.83 581.719 236.744 549.497L233.911 552.598Z" fill="#E17C00"/>
<path d="M553.037 336.956C551.538 335.097 548.851 334.76 547.035 336.204C545.219 337.648 544.961 340.327 546.46 342.187L549.748 339.572L553.037 336.956ZM622.011 398.873L621.815 394.61V394.61L622.011 398.873ZM649.54 384.37L653.081 386.849L653.081 386.848L649.54 384.37ZM670.143 288.45L666.124 286.91L666.124 286.91L670.143 288.45ZM770.224 241.265L767.938 244.794L767.938 244.794L770.224 241.265ZM771.304 314.327L775.061 316.452L775.061 316.452L771.304 314.327ZM716.473 689.264L719.808 692.017L719.808 692.017L716.473 689.264ZM552.105 774.581L552.157 778.844V778.844L552.105 774.581ZM334.841 641.655C333.066 640.056 330.373 640.16 328.825 641.888C327.278 643.616 327.461 646.313 329.236 647.913L332.038 644.784L334.841 641.655ZM549.748 339.572L546.46 342.187C561.76 361.174 575.983 376.318 588.541 386.725C600.873 396.945 612.419 403.297 622.207 403.136L622.011 398.873L621.815 394.61C615.386 394.716 606.007 390.287 593.865 380.225C581.949 370.35 568.149 355.71 553.037 336.956L549.748 339.572ZM622.011 398.873L622.207 403.136C633.928 402.944 645.061 398.563 653.081 386.849L649.54 384.37L645.999 381.892C639.704 391.088 631.251 394.456 621.815 394.61L622.011 398.873ZM649.54 384.37L653.081 386.848C662.808 372.639 665.284 355.262 666.811 338.385C668.371 321.141 668.959 304.542 674.163 289.99L670.143 288.45L666.124 286.91C660.459 302.751 659.811 320.871 658.318 337.368C656.792 354.232 654.4 369.619 645.999 381.892L649.54 384.37ZM670.143 288.45L674.163 289.99C679.147 276.048 694.961 259.386 713.934 248.921C733.021 238.392 753.389 235.125 767.938 244.794L770.224 241.265L772.511 237.735C753.811 225.307 729.572 230.436 709.648 241.426C689.609 252.479 672.006 270.458 666.124 286.91L670.143 288.45ZM770.224 241.265L767.938 244.794C775.823 250.035 780.337 255.101 782.722 259.925C785.075 264.688 785.548 269.601 784.661 274.928C783.758 280.348 781.46 286.113 778.323 292.4C775.164 298.733 771.393 305.148 767.547 312.201L771.304 314.327L775.061 316.452C778.728 309.727 782.734 302.883 785.976 296.386C789.24 289.843 791.967 283.209 793.073 276.569C794.194 269.837 793.657 263.033 790.344 256.33C787.062 249.69 781.25 243.543 772.511 237.735L770.224 241.265ZM771.304 314.327L767.547 312.201C752.097 340.538 745.305 374.098 744.864 414.652L749.127 414.825L753.39 414.997C753.822 375.317 760.462 343.227 775.061 316.452L771.304 314.327ZM749.127 414.825L744.864 414.652C744.424 455.025 744.456 467.687 754.849 530.085L759.054 529.506L763.259 528.927C752.947 467.019 752.956 454.859 753.39 414.997L749.127 414.825ZM759.054 529.506L754.849 530.085C764.976 590.886 745.22 647.182 713.137 686.511L716.473 689.264L719.808 692.017C753.193 651.092 773.836 592.43 763.259 528.927L759.054 529.506ZM716.473 689.264L713.137 686.511C681.508 725.285 621.484 771.53 552.054 770.318L552.105 774.581L552.157 778.844C625.256 780.119 687.434 731.704 719.808 692.017L716.473 689.264ZM552.105 774.581L552.054 770.318C511.008 769.602 466.497 746.464 427.026 718.625C387.677 690.873 354.108 659.022 334.841 641.655L332.038 644.784L329.236 647.913C348.304 665.1 382.356 697.408 422.25 725.545C462.023 753.597 508.378 778.08 552.157 778.844L552.105 774.581Z" fill="#E17C00"/>
<g opacity="0.8">
<path d="M685.42 394.99C680.148 382.264 651.693 407.436 618.588 442.648C580.088 483.599 577.933 544.888 593.208 572.238C613.891 609.269 652.228 603.249 658.924 566.47C665.905 528.127 671.005 492.801 675.862 461.641C680.211 433.728 693.449 414.381 685.42 394.99Z" fill="#FFD75D"/>
<path d="M729.346 248.314C707.54 251.462 692.933 272.826 685.71 295.976C679.517 315.821 674.374 348.746 692.034 351.292C706.88 353.432 712.752 330.345 732.479 308.002C759.56 277.33 762.099 243.584 729.346 248.314Z" fill="#FFD75D"/>
<path d="M525.955 374.318C518.489 359.705 468.693 366.664 425.805 422.961C382.916 479.258 353.636 567.805 376.113 583.43C398.589 599.054 409.186 545.324 432.641 504.322C456.366 462.848 478.547 441.05 496.103 423.663C516.17 403.79 533.83 389.727 525.955 374.318Z" fill="#FFD75D"/>
<path d="M501.808 639.353C469.359 631.98 455.765 623.083 438.323 615.609C423.419 609.222 405.432 612.207 417.444 636.816C429.454 661.424 470.986 686.043 495.946 690.476C537.32 697.825 582.647 688.191 580.32 661.936C578.641 643 549.66 650.226 501.808 639.353Z" fill="#FFD75D"/>
</g>
</g>
</g>
<defs>
<clipPath id="clip0_14_97965">
<rect width="870.75" height="870.75" fill="white"/>
</clipPath>
</defs>
</svg>
